<svg width="40" height="40" viewBox="0 0 40 40" fill="none" xmlns="http://www.w3.org/2000/svg">
<g clip-path="url(#clip0_36_3085)">
<rect width="40" height="40" rx="20" fill="#F2F3F7"/>
<path d="M10.332 20.5391C10.332 20.25 10.4336 20.0039 10.6367 19.8008C10.8477 19.5898 11.0938 19.4844 11.375 19.4844H18.957V11.9141C18.957 11.6328 19.0586 11.3906 19.2617 11.1875C19.4648 10.9766 19.7109 10.8711 20 10.8711C20.2891 10.8711 20.5352 10.9766 20.7383 11.1875C20.9492 11.3906 21.0547 11.6328 21.0547 11.9141V19.4844H28.625C28.9062 19.4844 29.1484 19.5898 29.3516 19.8008C29.5625 20.0039 29.668 20.25 29.668 20.5391C29.668 20.8281 29.5625 21.0742 29.3516 21.2773C29.1484 21.4805 28.9062 21.582 28.625 21.582H21.0547V29.1641C21.0547 29.4453 20.9492 29.6875 20.7383 29.8906C20.5352 30.1016 20.2891 30.207 20 30.207C19.7109 30.207 19.4648 30.1016 19.2617 29.8906C19.0586 29.6875 18.957 29.4453 18.957 29.1641V21.582H11.375C11.0938 21.582 10.8477 21.4805 10.6367 21.2773C10.4336 21.0742 10.332 20.8281 10.332 20.5391Z" fill="#007BFF"/>
</g>
<defs>
<clipPath id="clip0_36_3085">
<rect width="40" height="40" rx="20" fill="white"/>
</clipPath>
</defs>
</svg>
