<svg viewBox="0 0 24 24" xmlns="http://www.w3.org/2000/svg">
	<path d="M12.0039 15.8203C11.806 15.8203 11.6289 15.7448 11.4727 15.5938L5.42578 9.40625C5.35807 9.33854 5.30599 9.26302 5.26953 9.17969C5.23307 9.09115 5.21484 8.9974 5.21484 8.89844C5.21484 8.76302 5.24609 8.64062 5.30859 8.53125C5.37109 8.42188 5.45443 8.33594 5.55859 8.27344C5.66797 8.21094 5.79036 8.17969 5.92578 8.17969C6.1237 8.17969 6.29297 8.2474 6.43359 8.38281L12.418 14.5H11.582L17.5664 8.38281C17.7122 8.2474 17.8815 8.17969 18.0742 8.17969C18.2096 8.17969 18.3294 8.21094 18.4336 8.27344C18.543 8.33594 18.6289 8.42188 18.6914 8.53125C18.7539 8.64062 18.7852 8.76302 18.7852 8.89844C18.7852 9.09115 18.7148 9.25781 18.5742 9.39844L12.5273 15.5938C12.4596 15.6667 12.3789 15.724 12.2852 15.7656C12.1966 15.8021 12.1029 15.8203 12.0039 15.8203Z" />
</svg>
