<svg viewBox="0 0 24 24" xmlns="http://www.w3.org/2000/svg">
<path d="M15.8203 12C15.8203 12.099 15.7995 12.1927 15.7578 12.2812C15.7214 12.3646 15.6667 12.4427 15.5938 12.5156L9.40625 18.5703C9.26562 18.7109 9.09375 18.7812 8.89062 18.7812C8.76042 18.7812 8.64062 18.75 8.53125 18.6875C8.42188 18.625 8.33594 18.5391 8.27344 18.4297C8.21094 18.3255 8.17969 18.2057 8.17969 18.0703C8.17969 17.8776 8.2474 17.7083 8.38281 17.5625L14.0703 12L8.38281 6.4375C8.2474 6.29167 8.17969 6.1224 8.17969 5.92969C8.17969 5.79427 8.21094 5.67448 8.27344 5.57031C8.33594 5.46094 8.42188 5.375 8.53125 5.3125C8.64062 5.25 8.76042 5.21875 8.89062 5.21875C9.09375 5.21875 9.26562 5.28646 9.40625 5.42188L15.5938 11.4844C15.6667 11.5573 15.7214 11.638 15.7578 11.7266C15.7995 11.8099 15.8203 11.901 15.8203 12Z"/>
</svg>
