<svg viewBox="0 0 8 14" xmlns="http://www.w3.org/2000/svg">
	<path id="arrow-right" d="M7.82031 7C7.82031 7.09896 7.79948 7.19271 7.75781 7.28125C7.72135 7.36458 7.66667 7.44271 7.59375 7.51562L1.40625 13.5703C1.26562 13.7109 1.09375 13.7812 0.890625 13.7812C0.760417 13.7812 0.640625 13.75 0.53125 13.6875C0.421875 13.625 0.335938 13.5391 0.273438 13.4297C0.210938 13.3255 0.179688 13.2057 0.179688 13.0703C0.179688 12.8776 0.247396 12.7083 0.382812 12.5625L6.07031 7L0.382812 1.4375C0.247396 1.29167 0.179688 1.1224 0.179688 0.929688C0.179688 0.794271 0.210938 0.674479 0.273438 0.570312C0.335938 0.460938 0.421875 0.375 0.53125 0.3125C0.640625 0.25 0.760417 0.21875 0.890625 0.21875C1.09375 0.21875 1.26562 0.286458 1.40625 0.421875L7.59375 6.48438C7.66667 6.55729 7.72135 6.63802 7.75781 6.72656C7.79948 6.8099 7.82031 6.90104 7.82031 7Z" />
</svg>
