<svg width="8" height="14" viewBox="0 0 8 14" fill="none" xmlns="http://www.w3.org/2000/svg">
<path d="M0.1875 6.85938C0.1875 6.76042 0.205729 6.66927 0.242188 6.58594C0.278646 6.4974 0.333333 6.41667 0.40625 6.34375L6.60156 0.28125C6.74219 0.145833 6.91146 0.078125 7.10938 0.078125C7.24479 0.078125 7.36458 0.109375 7.46875 0.171875C7.57812 0.234375 7.66406 0.320312 7.72656 0.429688C7.79427 0.533854 7.82812 0.653646 7.82812 0.789062C7.82812 0.981771 7.75781 1.15104 7.61719 1.29688L1.92969 6.85938L7.61719 12.4219C7.75781 12.5677 7.82812 12.737 7.82812 12.9297C7.82812 13.0651 7.79427 13.1849 7.72656 13.2891C7.66406 13.3984 7.57812 13.4844 7.46875 13.5469C7.36458 13.6094 7.24479 13.6406 7.10938 13.6406C6.91146 13.6406 6.74219 13.5703 6.60156 13.4297L0.40625 7.375C0.333333 7.30208 0.278646 7.22396 0.242188 7.14062C0.205729 7.05208 0.1875 6.95833 0.1875 6.85938Z" fill="black"/>
</svg>
