<svg width="18" height="18" viewBox="0 0 18 18" fill="none" xmlns="http://www.w3.org/2000/svg">
<path d="M9 3C8.71875 3 8.47656 2.88802 8.27344 2.66406C8.07552 2.4401 7.97656 2.16406 7.97656 1.83594C7.97656 1.48698 8.03125 1.19271 8.14062 0.953125C8.25521 0.708333 8.40625 0.471354 8.59375 0.242188C8.71875 0.106771 8.85938 0.0416667 9.01562 0.046875C9.17188 0.0520833 9.3125 0.132812 9.4375 0.289062C9.625 0.507812 9.76823 0.736979 9.86719 0.976562C9.97135 1.21615 10.0234 1.5026 10.0234 1.83594C10.0234 2.16406 9.92448 2.4401 9.72656 2.66406C9.52865 2.88802 9.28646 3 9 3ZM8.55469 6.60156V2.16406H9.42188V6.60156H8.55469ZM3.89844 9.01562V8.46875C3.89844 7.69792 4.09635 7.11719 4.49219 6.72656C4.89323 6.33073 5.48438 6.13281 6.26562 6.13281H11.7344C12.5156 6.13281 13.1042 6.33073 13.5 6.72656C13.901 7.11719 14.1016 7.69792 14.1016 8.46875V9.01562H3.89844ZM1.23438 17.1953V12.4141C1.23438 11.6432 1.43229 11.0625 1.82812 10.6719C2.22917 10.276 2.82031 10.0781 3.60156 10.0781H14.3984C15.1797 10.0781 15.7682 10.276 16.1641 10.6719C16.5599 11.0625 16.7578 11.6432 16.7578 12.4141V17.1953H1.23438ZM8.99219 13.8984C9.1849 13.8984 9.36719 13.9453 9.53906 14.0391C9.71615 14.1276 9.89583 14.2318 10.0781 14.3516C10.2656 14.4714 10.4688 14.5755 10.6875 14.6641C10.9062 14.7578 11.1562 14.8047 11.4375 14.8047C11.7031 14.8047 11.9401 14.7578 12.1484 14.6641C12.3568 14.5755 12.5469 14.4714 12.7188 14.3516C12.8958 14.2318 13.0651 14.1276 13.2266 14.0391C13.3932 13.9453 13.5677 13.8984 13.75 13.8984C13.9323 13.8984 14.1068 13.9453 14.2734 14.0391C14.4401 14.1276 14.6224 14.2318 14.8203 14.3516C15.0182 14.4714 15.2474 14.5755 15.5078 14.6641C15.7682 14.7578 16.0807 14.8047 16.4453 14.8047H16.7578V13.7734H16.4453C16.1693 13.7734 15.9219 13.7292 15.7031 13.6406C15.4844 13.5469 15.276 13.4401 15.0781 13.3203C14.8802 13.2005 14.6745 13.0964 14.4609 13.0078C14.2474 12.9141 14.0104 12.8672 13.75 12.8672C13.4844 12.8672 13.2526 12.9141 13.0547 13.0078C12.862 13.0964 12.6823 13.2005 12.5156 13.3203C12.349 13.4401 12.1797 13.5469 12.0078 13.6406C11.8411 13.7292 11.651 13.7734 11.4375 13.7734C11.1875 13.7734 10.9661 13.7292 10.7734 13.6406C10.5859 13.5469 10.4062 13.4401 10.2344 13.3203C10.0625 13.2005 9.8776 13.0964 9.67969 13.0078C9.48698 12.9141 9.25781 12.8672 8.99219 12.8672C8.72656 12.8672 8.49479 12.9141 8.29688 13.0078C8.10417 13.0964 7.92188 13.2005 7.75 13.3203C7.57812 13.4401 7.39844 13.5469 7.21094 13.6406C7.02344 13.7292 6.80469 13.7734 6.55469 13.7734C6.34115 13.7734 6.14844 13.7292 5.97656 13.6406C5.80469 13.5469 5.63542 13.4401 5.46875 13.3203C5.30208 13.2005 5.11979 13.0964 4.92188 13.0078C4.72917 12.9141 4.5026 12.8672 4.24219 12.8672C3.97656 12.8672 3.73698 12.9141 3.52344 13.0078C3.3099 13.0964 3.10417 13.2005 2.90625 13.3203C2.70833 13.4401 2.4974 13.5469 2.27344 13.6406C2.05469 13.7292 1.80729 13.7734 1.53125 13.7734H1.23438V14.8047H1.53125C1.89583 14.8047 2.20833 14.7578 2.46875 14.6641C2.73438 14.5755 2.96354 14.4714 3.15625 14.3516C3.35417 14.2318 3.53906 14.1276 3.71094 14.0391C3.88281 13.9453 4.0599 13.8984 4.24219 13.8984C4.42448 13.8984 4.59635 13.9453 4.75781 14.0391C4.91927 14.1276 5.08594 14.2318 5.25781 14.3516C5.4349 14.4714 5.6276 14.5755 5.83594 14.6641C6.04427 14.7578 6.28385 14.8047 6.55469 14.8047C6.83594 14.8047 7.08333 14.7578 7.29688 14.6641C7.51562 14.5755 7.71615 14.4714 7.89844 14.3516C8.08594 14.2318 8.26562 14.1276 8.4375 14.0391C8.61458 13.9453 8.79948 13.8984 8.99219 13.8984ZM0.625 17.7422C0.453125 17.7422 0.304688 17.6797 0.179688 17.5547C0.0598958 17.4297 0 17.2812 0 17.1094C0 16.9375 0.0598958 16.7891 0.179688 16.6641C0.304688 16.5443 0.453125 16.4844 0.625 16.4844H17.3672C17.5391 16.4844 17.6849 16.5443 17.8047 16.6641C17.9297 16.7891 17.9922 16.9375 17.9922 17.1094C17.9922 17.2812 17.9297 17.4297 17.8047 17.5547C17.6849 17.6797 17.5391 17.7422 17.3672 17.7422H0.625Z" fill="#9B9EA1"/>
</svg>
