<svg width="16" height="16" viewBox="0 0 16 16" fill="none" xmlns="http://www.w3.org/2000/svg">
<path d="M0.509766 15.4492C0.392578 15.3385 0.314453 15.2083 0.275391 15.0586C0.242839 14.9089 0.246094 14.7591 0.285156 14.6094C0.324219 14.4596 0.399089 14.3294 0.509766 14.2188L6.75977 7.95898L0.509766 1.70898C0.399089 1.59831 0.324219 1.4681 0.285156 1.31836C0.252604 1.16862 0.252604 1.01888 0.285156 0.869141C0.324219 0.719401 0.399089 0.589193 0.509766 0.478516C0.620443 0.361328 0.750651 0.286458 0.900391 0.253906C1.05013 0.214844 1.19987 0.214844 1.34961 0.253906C1.50586 0.286458 1.63932 0.361328 1.75 0.478516L8 6.72852L14.25 0.478516C14.3607 0.361328 14.4909 0.286458 14.6406 0.253906C14.7904 0.214844 14.9401 0.214844 15.0898 0.253906C15.2396 0.286458 15.373 0.361328 15.4902 0.478516C15.6009 0.589193 15.6758 0.719401 15.7148 0.869141C15.7539 1.01888 15.7539 1.16862 15.7148 1.31836C15.6758 1.4681 15.6009 1.59831 15.4902 1.70898L9.24023 7.95898L15.4902 14.2188C15.6009 14.3294 15.6725 14.4596 15.7051 14.6094C15.7441 14.7591 15.7441 14.9089 15.7051 15.0586C15.6725 15.2083 15.6009 15.3385 15.4902 15.4492C15.3796 15.5664 15.2461 15.6413 15.0898 15.6738C14.9401 15.7129 14.7904 15.7129 14.6406 15.6738C14.4909 15.6348 14.3607 15.5599 14.25 15.4492L8 9.19922L1.75 15.4492C1.63932 15.5599 1.50911 15.6348 1.35938 15.6738C1.20964 15.7129 1.0599 15.7129 0.910156 15.6738C0.760417 15.6348 0.626953 15.5599 0.509766 15.4492Z" fill="#5F6367"/>
</svg>
