<svg width="24" height="24" viewBox="0 0 24 24" fill="none" xmlns="http://www.w3.org/2000/svg">
<path d="M7 5.5H11.5293C13.4062 5.5 14.7442 5.77861 15.5435 6.33584C16.3428 6.89307 16.7425 7.69334 16.7425 8.73666C16.7425 9.30575 16.6388 9.78887 16.4316 10.186C16.2303 10.5832 15.9728 10.8974 15.659 11.1286C15.3511 11.3598 15.0343 11.5169 14.7087 11.5999V11.6888C15.0639 11.7777 15.4162 11.9259 15.7655 12.1334C16.1208 12.3349 16.4139 12.6402 16.6448 13.0492C16.8816 13.4523 17 14.0007 17 14.6943C17 15.4827 16.7987 16.1614 16.3961 16.7305C15.9994 17.2996 15.431 17.7383 14.6909 18.0465C13.9509 18.3488 13.0716 18.5 12.0533 18.5H7V5.5ZM10.508 10.4884H11.5648C12.1451 10.4884 12.5536 10.3698 12.7904 10.1327C13.0272 9.88965 13.1456 9.59622 13.1456 9.25239C13.1456 8.89672 13.0095 8.627 12.7371 8.44323C12.4707 8.25353 12.0562 8.15869 11.4938 8.15869H10.508V10.4884ZM10.508 13.0581V15.788H11.7425C12.3523 15.788 12.7786 15.6575 13.0213 15.3967C13.2641 15.13 13.3854 14.798 13.3854 14.4008C13.3854 14.1696 13.3321 13.9533 13.2256 13.7517C13.1249 13.5442 12.9503 13.3782 12.7016 13.2538C12.4529 13.1233 12.1095 13.0581 11.6714 13.0581H10.508Z" fill="#5E5E5E"/>
</svg>
