<svg width="24" height="24" viewBox="0 0 24 24" fill="none" xmlns="http://www.w3.org/2000/svg">
<path d="M4.73264 17.2141C4.60959 17.0455 4.55946 16.8974 4.58224 16.7698C4.60959 16.6422 4.67795 16.5442 4.78732 16.4758C4.90126 16.3984 5.02202 16.3596 5.14963 16.3596C5.27723 16.3596 5.41851 16.3505 5.57346 16.3323C5.73296 16.3141 5.9107 16.2343 6.10666 16.093C6.27984 15.97 6.39833 15.815 6.46213 15.6282C6.52593 15.4368 6.58062 15.2294 6.62619 15.0061C6.67632 14.7828 6.76063 14.5572 6.87912 14.3294C6.99761 14.1015 7.19813 13.8873 7.48068 13.6868C7.80881 13.4544 8.17795 13.3336 8.5881 13.3245C8.99826 13.3154 9.3993 13.4111 9.79123 13.6116C10.1832 13.8121 10.5158 14.1106 10.7893 14.5071C11.0992 14.9446 11.2723 15.3935 11.3088 15.8538C11.3453 16.3141 11.2541 16.7538 11.0354 17.1731C10.8166 17.5969 10.4748 17.9706 10.01 18.2942C9.60894 18.5722 9.16232 18.7499 8.67014 18.8274C8.18251 18.9049 7.69032 18.8912 7.19357 18.7864C6.69683 18.6861 6.23198 18.5016 5.79904 18.2327C5.37066 17.9638 5.01519 17.6243 4.73264 17.2141ZM11.049 13.4954C10.8029 13.2447 10.525 13.0351 10.2151 12.8665C9.90972 12.6933 9.62261 12.5839 9.35373 12.5383C9.3993 12.2695 9.48589 12.0165 9.61349 11.7796C9.74566 11.5426 9.92795 11.3079 10.1604 11.0755C10.1968 11.039 10.2333 11.0025 10.2697 10.9661C10.3108 10.9296 10.3518 10.8932 10.3928 10.8567C10.7984 10.9342 11.1835 11.0709 11.5481 11.2669C11.9126 11.4628 12.2408 11.7089 12.5324 12.0051C12.8287 12.2968 13.077 12.6272 13.2776 12.9964C13.4781 13.3609 13.6148 13.7483 13.6877 14.1585C13.6558 14.1995 13.6216 14.2382 13.5852 14.2747C13.5487 14.3111 13.5123 14.3476 13.4758 14.3841C13.2434 14.6165 13.011 14.7988 12.7785 14.9309C12.5461 15.0631 12.2909 15.152 12.0129 15.1975C11.9673 14.9286 11.858 14.6415 11.6848 14.3362C11.5116 14.0263 11.2997 13.746 11.049 13.4954ZM17.4953 5.36745C17.7141 5.20795 17.9351 5.12591 18.1584 5.12136C18.3863 5.1168 18.5959 5.17149 18.7873 5.28542C18.9833 5.39935 19.1382 5.55202 19.2522 5.74343C19.3661 5.93483 19.4231 6.14675 19.4231 6.37917C19.4231 6.60703 19.3433 6.83262 19.1838 7.05593C19.1382 7.11517 19.0334 7.26101 18.8694 7.49343C18.7098 7.72585 18.5048 8.01979 18.2541 8.37526C18.0035 8.73073 17.7186 9.12494 17.3996 9.55788C17.0852 9.99082 16.7502 10.4397 16.3947 10.9046C16.0438 11.3648 15.6861 11.8206 15.3215 12.2717C14.9615 12.7229 14.6083 13.1445 14.2619 13.5364C14.0158 12.7525 13.6057 12.0758 13.0315 11.5061C12.4618 10.9365 11.7896 10.5286 11.0149 10.2825C11.4068 9.94069 11.8283 9.58978 12.2795 9.22975C12.7307 8.86517 13.1887 8.50742 13.6535 8.15651C14.1184 7.80104 14.5673 7.46608 15.0002 7.15163C15.4332 6.83262 15.8251 6.54779 16.176 6.29714C16.5315 6.04649 16.8254 5.83913 17.0578 5.67507C17.2903 5.51101 17.4361 5.40847 17.4953 5.36745Z" fill="#5E5E5E"/>
</svg>
