<svg width="17" height="17" viewBox="0 0 17 17" fill="none" xmlns="http://www.w3.org/2000/svg">
    <path d="M0.09375 16.375C0.09375 16.2031 0.153646 16.0547 0.273438 15.9297C0.398438 15.8099 0.546875 15.75 0.71875 15.75H16.2656C16.4375 15.75 16.5859 15.8099 16.7109 15.9297C16.8359 16.0547 16.8984 16.2031 16.8984 16.375C16.8984 16.5469 16.8359 16.6953 16.7109 16.8203C16.5859 16.9453 16.4375 17.0078 16.2656 17.0078H0.71875C0.546875 17.0078 0.398438 16.9453 0.273438 16.8203C0.153646 16.6953 0.09375 16.5469 0.09375 16.375ZM1.46094 7.42969V7.24219C1.46094 7.09115 1.5026 6.97135 1.58594 6.88281C1.67448 6.79427 1.79948 6.75 1.96094 6.75H3.96094C4.1224 6.75 4.2474 6.79427 4.33594 6.88281C4.42448 6.97135 4.46875 7.09115 4.46875 7.24219V7.42969C4.46875 7.58594 4.42448 7.70833 4.33594 7.79688C4.2474 7.88542 4.1224 7.92969 3.96094 7.92969H1.96094C1.79948 7.92969 1.67448 7.88542 1.58594 7.79688C1.5026 7.70833 1.46094 7.58594 1.46094 7.42969ZM2.375 14.1094V7.50781H3.55469V14.1094H2.375ZM1.46094 14.5625V14.375C1.46094 14.224 1.5026 14.1042 1.58594 14.0156C1.67448 13.9271 1.79948 13.8828 1.96094 13.8828H3.96094C4.1224 13.8828 4.2474 13.9271 4.33594 14.0156C4.42448 14.1042 4.46875 14.224 4.46875 14.375V14.5625C4.46875 14.724 4.42448 14.8464 4.33594 14.9297C4.2474 15.0182 4.1224 15.0625 3.96094 15.0625H1.96094C1.79948 15.0625 1.67448 15.0182 1.58594 14.9297C1.5026 14.8464 1.46094 14.724 1.46094 14.5625ZM5.17188 7.42969V7.24219C5.17188 7.09115 5.21615 6.97135 5.30469 6.88281C5.39323 6.79427 5.51562 6.75 5.67188 6.75H7.67969C7.83594 6.75 7.95833 6.79427 8.04688 6.88281C8.13542 6.97135 8.17969 7.09115 8.17969 7.24219V7.42969C8.17969 7.58594 8.13542 7.70833 8.04688 7.79688C7.95833 7.88542 7.83594 7.92969 7.67969 7.92969H5.67188C5.51562 7.92969 5.39323 7.88542 5.30469 7.79688C5.21615 7.70833 5.17188 7.58594 5.17188 7.42969ZM6.09375 14.1094V7.50781H7.27344V14.1094H6.09375ZM5.17188 14.5625V14.375C5.17188 14.224 5.21615 14.1042 5.30469 14.0156C5.39323 13.9271 5.51562 13.8828 5.67188 13.8828H7.67969C7.83594 13.8828 7.95833 13.9271 8.04688 14.0156C8.13542 14.1042 8.17969 14.224 8.17969 14.375V14.5625C8.17969 14.724 8.13542 14.8464 8.04688 14.9297C7.95833 15.0182 7.83594 15.0625 7.67969 15.0625H5.67188C5.51562 15.0625 5.39323 15.0182 5.30469 14.9297C5.21615 14.8464 5.17188 14.724 5.17188 14.5625ZM8.89062 7.42969V7.24219C8.89062 7.09115 8.9349 6.97135 9.02344 6.88281C9.11198 6.79427 9.23438 6.75 9.39062 6.75H11.3984C11.5547 6.75 11.6771 6.79427 11.7656 6.88281C11.8542 6.97135 11.8984 7.09115 11.8984 7.24219V7.42969C11.8984 7.58594 11.8542 7.70833 11.7656 7.79688C11.6771 7.88542 11.5547 7.92969 11.3984 7.92969H9.39062C9.23438 7.92969 9.11198 7.88542 9.02344 7.79688C8.9349 7.70833 8.89062 7.58594 8.89062 7.42969ZM9.8125 14.1094V7.50781H10.9922V14.1094H9.8125ZM8.89062 14.5625V14.375C8.89062 14.224 8.9349 14.1042 9.02344 14.0156C9.11198 13.9271 9.23438 13.8828 9.39062 13.8828H11.3984C11.5547 13.8828 11.6771 13.9271 11.7656 14.0156C11.8542 14.1042 11.8984 14.224 11.8984 14.375V14.5625C11.8984 14.724 11.8542 14.8464 11.7656 14.9297C11.6771 15.0182 11.5547 15.0625 11.3984 15.0625H9.39062C9.23438 15.0625 9.11198 15.0182 9.02344 14.9297C8.9349 14.8464 8.89062 14.724 8.89062 14.5625ZM12.6094 7.42969V7.24219C12.6094 7.09115 12.651 6.97135 12.7344 6.88281C12.8229 6.79427 12.9479 6.75 13.1094 6.75H15.1094C15.2708 6.75 15.3932 6.79427 15.4766 6.88281C15.5651 6.97135 15.6094 7.09115 15.6094 7.24219V7.42969C15.6094 7.58594 15.5651 7.70833 15.4766 7.79688C15.3932 7.88542 15.2708 7.92969 15.1094 7.92969H13.1094C12.9479 7.92969 12.8229 7.88542 12.7344 7.79688C12.651 7.70833 12.6094 7.58594 12.6094 7.42969ZM13.5234 14.1094V7.50781H14.7031V14.1094H13.5234ZM12.6094 14.5625V14.375C12.6094 14.224 12.651 14.1042 12.7344 14.0156C12.8229 13.9271 12.9479 13.8828 13.1094 13.8828H15.1094C15.2708 13.8828 15.3932 13.9271 15.4766 14.0156C15.5651 14.1042 15.6094 14.224 15.6094 14.375V14.5625C15.6094 14.724 15.5651 14.8464 15.4766 14.9297C15.3932 15.0182 15.2708 15.0625 15.1094 15.0625H13.1094C12.9479 15.0625 12.8229 15.0182 12.7344 14.9297C12.651 14.8464 12.6094 14.724 12.6094 14.5625ZM1.125 6.07031C0.90625 6.07031 0.736979 6.00521 0.617188 5.875C0.502604 5.74479 0.445312 5.59896 0.445312 5.4375C0.445312 5.32292 0.476562 5.21615 0.539062 5.11719C0.606771 5.01302 0.713542 4.91927 0.859375 4.83594L7.53125 0.992188C7.84896 0.809896 8.16927 0.71875 8.49219 0.71875C8.8151 0.71875 9.13542 0.809896 9.45312 0.992188L16.125 4.83594C16.2708 4.91927 16.375 5.01302 16.4375 5.11719C16.5052 5.21615 16.5391 5.32292 16.5391 5.4375C16.5391 5.59896 16.4792 5.74479 16.3594 5.875C16.2448 6.00521 16.0781 6.07031 15.8594 6.07031H1.125Z" fill="#9B9EA1"/>
</svg>
