<svg viewBox="0 0 27 26" xmlns="http://www.w3.org/2000/svg">
	<path d="M20.2057 23.8202C22.0749 22.5755 23.5897 20.8678 24.6026 18.8635C25.6155 16.8592 26.0919 14.6267 25.9854 12.3835C25.8789 10.1403 25.1931 7.96302 23.9949 6.0637C22.7967 4.16438 21.1269 2.60785 19.1482 1.54577C17.1696 0.483694 14.9495 -0.0477032 12.7044 0.0033613C10.4593 0.0544258 8.26569 0.68621 6.33736 1.83715C4.40903 2.98809 2.81173 4.61894 1.70111 6.57077C0.590486 8.5226 0.00442316 10.7289 2.49327e-05 12.9745L1.95002 12.9784C1.95376 11.0695 2.45191 9.19421 3.39594 7.53515C4.33997 5.8761 5.69767 4.48988 7.33675 3.51158C8.97583 2.53328 10.8404 1.99626 12.7487 1.95286C14.6571 1.90945 16.5441 2.36114 18.226 3.26391C19.9079 4.16667 21.3272 5.48973 22.3457 7.10415C23.3641 8.71857 23.947 10.5693 24.0376 12.476C24.1281 14.3827 23.7231 16.2803 22.8622 17.9839C22.0012 19.6876 20.7136 21.1392 19.1249 22.1972L20.2057 23.8202Z" />
</svg>
