<svg width="25" height="24" viewBox="0 0 25 24" fill="none" xmlns="http://www.w3.org/2000/svg">
<path d="M6.3999 7.14551C6.25863 7.14551 6.13786 7.09538 6.0376 6.99512C5.93734 6.89486 5.88721 6.77181 5.88721 6.62598C5.88721 6.4847 5.93734 6.36393 6.0376 6.26367C6.13786 6.16341 6.25863 6.11328 6.3999 6.11328H19.1353C19.2811 6.11328 19.4041 6.16341 19.5044 6.26367C19.6092 6.36393 19.6616 6.4847 19.6616 6.62598C19.6616 6.77181 19.6092 6.89486 19.5044 6.99512C19.4041 7.09538 19.2811 7.14551 19.1353 7.14551H6.3999ZM8.9292 10.7275C8.78337 10.7275 8.66032 10.6774 8.56006 10.5771C8.4598 10.4769 8.40967 10.3538 8.40967 10.208C8.40967 10.0622 8.4598 9.94141 8.56006 9.8457C8.66032 9.74544 8.78337 9.69531 8.9292 9.69531H16.6128C16.7586 9.69531 16.8817 9.74544 16.9819 9.8457C17.0822 9.94141 17.1323 10.0622 17.1323 10.208C17.1323 10.3538 17.0822 10.4769 16.9819 10.5771C16.8817 10.6774 16.7586 10.7275 16.6128 10.7275H8.9292ZM6.3999 14.3096C6.25863 14.3096 6.13786 14.2594 6.0376 14.1592C5.93734 14.0589 5.88721 13.9359 5.88721 13.79C5.88721 13.6442 5.93734 13.5234 6.0376 13.4277C6.13786 13.3275 6.25863 13.2773 6.3999 13.2773H19.1353C19.2811 13.2773 19.4041 13.3275 19.5044 13.4277C19.6092 13.5234 19.6616 13.6442 19.6616 13.79C19.6616 13.9359 19.6092 14.0589 19.5044 14.1592C19.4041 14.2594 19.2811 14.3096 19.1353 14.3096H6.3999ZM8.9292 17.8848C8.78337 17.8848 8.66032 17.8346 8.56006 17.7344C8.4598 17.6387 8.40967 17.5179 8.40967 17.3721C8.40967 17.2262 8.4598 17.1032 8.56006 17.0029C8.66032 16.9027 8.78337 16.8525 8.9292 16.8525H16.6128C16.7586 16.8525 16.8817 16.9027 16.9819 17.0029C17.0822 17.1032 17.1323 17.2262 17.1323 17.3721C17.1323 17.5179 17.0822 17.6387 16.9819 17.7344C16.8817 17.8346 16.7586 17.8848 16.6128 17.8848H8.9292Z" fill="#5E5E5E"/>
</svg>
