<svg width="12" height="6" viewBox="0 0 12 6" fill="none" xmlns="http://www.w3.org/2000/svg">
<path d="M6 5.89258C5.85156 5.89258 5.71875 5.83594 5.60156 5.72266L1.06641 1.08203C1.01562 1.03125 0.976562 0.974609 0.949219 0.912109C0.921875 0.845703 0.908203 0.775391 0.908203 0.701172C0.908203 0.599609 0.931641 0.507812 0.978516 0.425781C1.02539 0.34375 1.08789 0.279297 1.16602 0.232422C1.24805 0.185547 1.33984 0.162109 1.44141 0.162109C1.58984 0.162109 1.7168 0.212891 1.82227 0.314453L6.31055 4.90234H5.68359L10.1719 0.314453C10.2812 0.212891 10.4082 0.162109 10.5527 0.162109C10.6543 0.162109 10.7441 0.185547 10.8223 0.232422C10.9043 0.279297 10.9688 0.34375 11.0156 0.425781C11.0625 0.507812 11.0859 0.599609 11.0859 0.701172C11.0859 0.845703 11.0332 0.970703 10.9277 1.07617L6.39258 5.72266C6.3418 5.77734 6.28125 5.82031 6.21094 5.85156C6.14453 5.87891 6.07422 5.89258 6 5.89258Z" fill="#5E5E5E"/>
</svg>
