<svg width="24" height="24" viewBox="0 0 24 24" fill="none" xmlns="http://www.w3.org/2000/svg">
<path d="M12 13.9922C11.7279 13.9922 11.4714 13.9401 11.2305 13.8359C10.9909 13.7318 10.7793 13.5879 10.5957 13.4043C10.4121 13.2207 10.2682 13.0091 10.1641 12.7695C10.0599 12.5286 10.0078 12.2721 10.0078 12C10.0078 11.7279 10.0599 11.472 10.1641 11.2324C10.2682 10.9915 10.4115 10.7793 10.5938 10.5957C10.7773 10.4121 10.9889 10.2682 11.2285 10.1641C11.4694 10.0599 11.7259 10.0078 11.998 10.0078C12.2702 10.0078 12.5267 10.0599 12.7676 10.1641C13.0085 10.2682 13.2207 10.4121 13.4043 10.5957C13.5879 10.7793 13.7318 10.9915 13.8359 11.2324C13.9401 11.472 13.9922 11.7279 13.9922 12C13.9922 12.2721 13.9401 12.5286 13.8359 12.7695C13.7318 13.0091 13.5879 13.2207 13.4043 13.4043C13.2207 13.5879 13.0085 13.7318 12.7676 13.8359C12.528 13.9401 12.2721 13.9922 12 13.9922Z" fill="#686969"/>
</svg>
