<svg width="40" height="40" viewBox="0 0 40 40" fill="none" xmlns="http://www.w3.org/2000/svg">
<g clip-path="url(#clip0_36_1488)">
<rect width="40" height="40" rx="20" fill="#88888D"/>
<path d="M9.51562 34.0312C8.68229 34.0312 8.02604 33.8438 7.54688 33.4688C7.07812 33.1042 6.84375 32.599 6.84375 31.9531C6.84375 30.9531 7.14583 29.8958 7.75 28.7812C8.35417 27.6667 9.22917 26.625 10.375 25.6562C11.5208 24.6771 12.901 23.8854 14.5156 23.2812C16.1406 22.6667 17.9635 22.3594 19.9844 22.3594C22.0156 22.3594 23.8385 22.6667 25.4531 23.2812C27.0781 23.8854 28.4583 24.6771 29.5938 25.6562C30.7396 26.625 31.6146 27.6667 32.2188 28.7812C32.8333 29.8958 33.1406 30.9531 33.1406 31.9531C33.1406 32.599 32.901 33.1042 32.4219 33.4688C31.9531 33.8438 31.3021 34.0312 30.4688 34.0312H9.51562ZM20 19.5625C18.8854 19.5625 17.8542 19.2604 16.9062 18.6562C15.9583 18.0417 15.1927 17.2188 14.6094 16.1875C14.0365 15.1458 13.75 13.9792 13.75 12.6875C13.75 11.4167 14.0365 10.2708 14.6094 9.25C15.1927 8.22917 15.9583 7.42188 16.9062 6.82812C17.8542 6.23438 18.8854 5.9375 20 5.9375C21.1146 5.9375 22.1458 6.22917 23.0938 6.8125C24.0417 7.39583 24.8021 8.19792 25.375 9.21875C25.9583 10.2292 26.25 11.375 26.25 12.6562C26.25 13.9583 25.9583 15.1302 25.375 16.1719C24.8021 17.2135 24.0417 18.0417 23.0938 18.6562C22.1458 19.2604 21.1146 19.5625 20 19.5625Z" fill="white"/>
</g>
<defs>
<clipPath id="clip0_36_1488">
<rect width="40" height="40" rx="20" fill="white"/>
</clipPath>
</defs>
</svg>
