<svg width="19" height="15" viewBox="0 0 19 15" fill="none" xmlns="http://www.w3.org/2000/svg">
<path d="M7.85156 14.1953L9.11719 12.9375H12.2031C12.375 12.9375 12.5208 13 12.6406 13.125C12.7656 13.25 12.8281 13.3984 12.8281 13.5703C12.8281 13.7422 12.7656 13.888 12.6406 14.0078C12.5208 14.1328 12.375 14.1953 12.2031 14.1953H7.85156ZM14.5312 14.1953C14.3594 14.1953 14.2109 14.1328 14.0859 14.0078C13.9661 13.888 13.9062 13.7422 13.9062 13.5703C13.9062 13.3984 13.9661 13.25 14.0859 13.125C14.2109 13 14.3594 12.9375 14.5312 12.9375H18.2734C18.4453 12.9375 18.5911 13 18.7109 13.125C18.8359 13.25 18.8984 13.3984 18.8984 13.5703C18.8984 13.7422 18.8359 13.888 18.7109 14.0078C18.5911 14.1328 18.4453 14.1953 18.2734 14.1953H14.5312ZM0.921875 11.2812C0.557292 10.9323 0.3125 10.5625 0.1875 10.1719C0.0677083 9.77604 0.0598958 9.38542 0.164062 9C0.273438 8.61458 0.494792 8.25781 0.828125 7.92969L1.57812 7.17969L7.53906 13.0156L6.77344 13.7891C6.27865 14.2839 5.73438 14.526 5.14062 14.5156C4.55208 14.5104 4 14.2578 3.48438 13.7578L0.921875 11.2812ZM2.3125 6.44531L7.71094 1.0625C8.03906 0.739583 8.40625 0.580729 8.8125 0.585938C9.21875 0.585938 9.58854 0.75 9.92188 1.07812L13.625 4.69531C13.9635 5.02344 14.1328 5.39323 14.1328 5.80469C14.138 6.21094 13.9766 6.57812 13.6484 6.90625L8.27344 12.2891L2.3125 6.44531Z" fill="#5E5E5E"/>
</svg>
