<svg width="24" height="24" viewBox="0 0 24 24" fill="none" xmlns="http://www.w3.org/2000/svg">
<path d="M10.5621 17.8146L11.6695 16.714H14.3697C14.5201 16.714 14.6477 16.7687 14.7526 16.878C14.8619 16.9874 14.9166 17.1173 14.9166 17.2677C14.9166 17.4181 14.8619 17.5457 14.7526 17.6505C14.6477 17.7599 14.5201 17.8146 14.3697 17.8146H10.5621ZM16.4069 17.8146C16.2565 17.8146 16.1266 17.7599 16.0172 17.6505C15.9124 17.5457 15.86 17.4181 15.86 17.2677C15.86 17.1173 15.9124 16.9874 16.0172 16.878C16.1266 16.7687 16.2565 16.714 16.4069 16.714H19.6813C19.8317 16.714 19.9593 16.7687 20.0641 16.878C20.1735 16.9874 20.2281 17.1173 20.2281 17.2677C20.2281 17.4181 20.1735 17.5457 20.0641 17.6505C19.9593 17.7599 19.8317 17.8146 19.6813 17.8146H16.4069ZM4.49865 15.2648C4.17964 14.9594 3.96545 14.6359 3.85607 14.2941C3.75125 13.9477 3.74442 13.6059 3.83556 13.2687C3.93127 12.9314 4.12495 12.6192 4.41662 12.3321L5.07287 11.6759L10.2887 16.7823L9.61877 17.4591C9.18582 17.892 8.70959 18.1039 8.19005 18.0948C7.67508 18.0903 7.19201 17.8692 6.74084 17.4317L4.49865 15.2648ZM5.71545 11.0333L10.4391 6.32335C10.7262 6.0408 11.0475 5.9018 11.4029 5.90636C11.7584 5.90636 12.082 6.04991 12.3736 6.33702L15.6139 9.50206C15.9101 9.78917 16.0582 10.1127 16.0582 10.4728C16.0628 10.8282 15.9215 11.1495 15.6344 11.4366L10.9313 16.1466L5.71545 11.0333Z" fill="#5E5E5E"/>
</svg>
