<svg width="24" height="19" viewBox="0 0 24 19" fill="none" xmlns="http://www.w3.org/2000/svg">
<path d="M0.90625 15.7988V7.79102H23.084V15.7988C23.084 16.8079 22.8398 17.5632 22.3516 18.0645C21.8633 18.5723 21.1829 18.8262 20.3105 18.8262H3.97266C2.95052 18.8262 2.18229 18.5723 1.66797 18.0645C1.16016 17.5632 0.90625 16.8079 0.90625 15.7988ZM0.90625 6.51172V3.89453C0.90625 2.91146 1.14062 2.17578 1.60938 1.6875C2.07812 1.19922 2.74219 0.955078 3.60156 0.955078H6.38477C6.70378 0.955078 6.98047 0.977865 7.21484 1.02344C7.45573 1.06901 7.67383 1.14388 7.86914 1.24805C8.07096 1.35221 8.2793 1.49544 8.49414 1.67773L9.08984 2.16602C9.33724 2.37435 9.57487 2.52409 9.80273 2.61523C10.0306 2.69987 10.3105 2.74219 10.6426 2.74219H20.0176C21.0332 2.74219 21.7982 2.99609 22.3125 3.50391C22.8268 4.01172 23.084 4.76693 23.084 5.76953V6.51172H0.90625Z" fill="#5F6367"/>
</svg>
