<svg width="24" height="24" viewBox="0 0 24 24" fill="none" xmlns="http://www.w3.org/2000/svg">
<path d="M10.5635 12C10.5635 11.7959 10.6025 11.6035 10.6807 11.4229C10.7588 11.2432 10.8667 11.0845 11.0044 10.9468C11.1421 10.8091 11.3008 10.7012 11.4805 10.623C11.6611 10.5449 11.8535 10.5059 12.0576 10.5059C12.2617 10.5059 12.4536 10.5449 12.6333 10.623C12.814 10.7012 12.9731 10.8086 13.1108 10.9453C13.2485 11.083 13.3564 11.2417 13.4346 11.4214C13.5127 11.6021 13.5518 11.7944 13.5518 11.9985C13.5518 12.2026 13.5127 12.395 13.4346 12.5757C13.3564 12.7563 13.2485 12.9155 13.1108 13.0532C12.9731 13.1909 12.814 13.2988 12.6333 13.377C12.4536 13.4551 12.2617 13.4941 12.0576 13.4941C11.8535 13.4941 11.6611 13.4551 11.4805 13.377C11.3008 13.2988 11.1421 13.1909 11.0044 13.0532C10.8667 12.9155 10.7588 12.7563 10.6807 12.5757C10.6025 12.396 10.5635 12.2041 10.5635 12ZM10.8125 12C10.8125 12.1729 10.8447 12.3345 10.9092 12.4849C10.9736 12.6353 11.0625 12.7676 11.1758 12.8818C11.29 12.9961 11.4224 13.085 11.5728 13.1484C11.7231 13.2129 11.8848 13.2451 12.0576 13.2451C12.2305 13.2451 12.3921 13.2129 12.5425 13.1484C12.6929 13.084 12.8252 12.9946 12.9395 12.8804C13.0537 12.7671 13.1426 12.6348 13.2061 12.4834C13.2705 12.333 13.3027 12.1714 13.3027 11.9985C13.3027 11.8257 13.2705 11.6641 13.2061 11.5137C13.1426 11.3633 13.0537 11.2314 12.9395 11.1182C12.8252 11.0049 12.6929 10.916 12.5425 10.8516C12.3921 10.7881 12.2305 10.7563 12.0576 10.7563C11.8848 10.7563 11.7231 10.7881 11.5728 10.8516C11.4224 10.916 11.29 11.0049 11.1758 11.1182C11.0625 11.2324 10.9736 11.3647 10.9092 11.5151C10.8447 11.6655 10.8125 11.8271 10.8125 12Z" fill="#5F6367"/>
<path d="M10.6807 11.4229L9.76359 11.0241L9.76281 11.0259L10.6807 11.4229ZM11.4805 10.623L11.0836 9.70519L11.0817 9.70598L11.4805 10.623ZM12.6333 10.623L12.2346 11.5401L12.2364 11.5409L12.6333 10.623ZM13.1108 10.9453L13.818 10.2382L13.8154 10.2357L13.1108 10.9453ZM13.4346 11.4214L14.3524 11.0245L14.3516 11.0227L13.4346 11.4214ZM12.6333 13.377L12.2364 12.4591L12.2346 12.4599L12.6333 13.377ZM11.4805 13.377L11.0817 14.294L11.0836 14.2948L11.4805 13.377ZM10.6807 12.5757L11.5985 12.1788L11.5977 12.177L10.6807 12.5757ZM11.1758 12.8818L10.4656 13.5859L10.4687 13.5889L11.1758 12.8818ZM11.5728 13.1484L11.9667 12.2293L11.9616 12.2271L11.5728 13.1484ZM12.9395 12.8804L12.2354 12.1702L12.2323 12.1733L12.9395 12.8804ZM13.2061 12.4834L12.2869 12.0895L12.2839 12.0967L13.2061 12.4834ZM13.2061 11.5137L12.2847 11.9025L12.2869 11.9076L13.2061 11.5137ZM12.5425 10.8516L12.9364 9.9324L12.9313 9.93027L12.5425 10.8516ZM11.5728 10.8516L11.1839 9.93025L11.1788 9.93242L11.5728 10.8516ZM11.1758 11.1182L10.4717 10.408L10.4656 10.4141L11.1758 11.1182ZM11.5635 12C11.5635 11.9273 11.5766 11.8705 11.5985 11.8198L9.76281 11.0259C9.62848 11.3366 9.56348 11.6645 9.56348 12H11.5635ZM11.5977 11.8216C11.6262 11.7562 11.6631 11.7023 11.7115 11.6539L10.2973 10.2397C10.0703 10.4666 9.89142 10.7301 9.76359 11.0241L11.5977 11.8216ZM11.7115 11.6539C11.7599 11.6055 11.8138 11.5685 11.8792 11.5401L11.0817 9.70598C10.7877 9.83381 10.5243 10.0127 10.2973 10.2397L11.7115 11.6539ZM11.8774 11.5409C11.9281 11.519 11.9849 11.5059 12.0576 11.5059V9.50586C11.7221 9.50586 11.3942 9.57087 11.0836 9.70519L11.8774 11.5409ZM12.0576 11.5059C12.1304 11.5059 12.1859 11.519 12.2346 11.5401L13.032 9.70598C12.7213 9.57087 12.3931 9.50586 12.0576 9.50586V11.5059ZM12.2364 11.5409C12.3041 11.5702 12.3585 11.6075 12.4063 11.6549L13.8154 10.2357C13.5878 10.0097 13.3239 9.83217 13.0302 9.70519L12.2364 11.5409ZM12.4037 11.6524C12.4522 11.7008 12.4891 11.7547 12.5175 11.8201L14.3516 11.0227C14.2238 10.7286 14.0449 10.4652 13.8179 10.2382L12.4037 11.6524ZM12.5167 11.8183C12.5386 11.869 12.5518 11.9258 12.5518 11.9985H14.5518C14.5518 11.6631 14.4867 11.3351 14.3524 11.0245L12.5167 11.8183ZM12.5518 11.9985C12.5518 12.0713 12.5386 12.1281 12.5167 12.1788L14.3524 12.9726C14.4867 12.662 14.5518 12.334 14.5518 11.9985H12.5518ZM12.5167 12.1788C12.4881 12.245 12.4513 12.2986 12.4037 12.3461L13.8179 13.7603C14.0458 13.5325 14.2248 13.2677 14.3524 12.9726L12.5167 12.1788ZM12.4037 12.3461C12.3562 12.3936 12.3026 12.4305 12.2364 12.4591L13.0302 14.2948C13.3254 14.1672 13.5901 13.9882 13.8179 13.7603L12.4037 12.3461ZM12.2346 12.4599C12.1859 12.481 12.1304 12.4941 12.0576 12.4941V14.4941C12.3931 14.4941 12.7213 14.4291 13.032 14.294L12.2346 12.4599ZM12.0576 12.4941C11.9849 12.4941 11.9281 12.481 11.8774 12.4591L11.0836 14.2948C11.3942 14.4291 11.7221 14.4941 12.0576 14.4941V12.4941ZM11.8792 12.4599C11.8138 12.4315 11.7599 12.3945 11.7115 12.3461L10.2973 13.7603C10.5243 13.9873 10.7877 14.1662 11.0817 14.294L11.8792 12.4599ZM11.7115 12.3461C11.664 12.2986 11.6271 12.245 11.5985 12.1788L9.76281 12.9726C9.89044 13.2677 10.0694 13.5325 10.2973 13.7603L11.7115 12.3461ZM11.5977 12.177C11.5766 12.1283 11.5635 12.0728 11.5635 12H9.56348C9.56348 12.3355 9.62849 12.6637 9.76359 12.9744L11.5977 12.177ZM9.8125 12C9.8125 12.3005 9.86926 12.597 9.99003 12.8788L11.8283 12.0909C11.8202 12.072 11.8125 12.0452 11.8125 12H9.8125ZM9.99003 12.8788C10.1032 13.1428 10.2623 13.3808 10.4656 13.5859L11.8859 12.1778C11.8627 12.1544 11.8441 12.1277 11.8283 12.0909L9.99003 12.8788ZM10.4687 13.5889C10.6752 13.7954 10.9158 13.9566 11.1839 14.0697L11.9616 12.2271C11.9289 12.2133 11.9049 12.1968 11.8829 12.1747L10.4687 13.5889ZM11.1788 14.0676C11.4607 14.1884 11.7571 14.2451 12.0576 14.2451V12.2451C12.0124 12.2451 11.9856 12.2374 11.9667 12.2293L11.1788 14.0676ZM12.0576 14.2451C12.3581 14.2451 12.6546 14.1884 12.9364 14.0676L12.1486 12.2293C12.1296 12.2374 12.1028 12.2451 12.0576 12.2451V14.2451ZM12.9364 14.0676C13.2022 13.9537 13.4412 13.7928 13.6466 13.5875L12.2323 12.1733C12.2092 12.1964 12.1835 12.2143 12.1486 12.2293L12.9364 14.0676ZM13.6435 13.5905C13.8529 13.3829 14.015 13.1401 14.1282 12.8701L12.2839 12.0967C12.2701 12.1295 12.2545 12.1513 12.2354 12.1702L13.6435 13.5905ZM14.1252 12.8773C14.246 12.5955 14.3027 12.299 14.3027 11.9985H12.3027C12.3027 12.0437 12.295 12.0705 12.2869 12.0895L14.1252 12.8773ZM14.3027 11.9985C14.3027 11.698 14.246 11.4016 14.1252 11.1198L12.2869 11.9076C12.295 11.9266 12.3027 11.9533 12.3027 11.9985H14.3027ZM14.1274 11.1248C14.0139 10.856 13.8518 10.6146 13.6435 10.408L12.2354 11.8283C12.2556 11.8483 12.2713 11.8706 12.2848 11.9025L14.1274 11.1248ZM13.6435 10.408C13.4384 10.2047 13.2004 10.0456 12.9364 9.93242L12.1486 11.7707C12.1853 11.7865 12.212 11.8051 12.2354 11.8283L13.6435 10.408ZM12.9313 9.93027C12.6507 9.81183 12.3561 9.75635 12.0576 9.75635V11.7563C12.1049 11.7563 12.1334 11.7643 12.1536 11.7729L12.9313 9.93027ZM12.0576 9.75635C11.7592 9.75635 11.4645 9.81183 11.1839 9.93027L11.9616 11.7729C11.9818 11.7643 12.0104 11.7563 12.0576 11.7563V9.75635ZM11.1788 9.93242C10.9148 10.0456 10.6768 10.2047 10.4717 10.408L11.8798 11.8283C11.9033 11.8051 11.9299 11.7865 11.9667 11.7707L11.1788 9.93242ZM10.4656 10.4141C10.2623 10.6192 10.1032 10.8572 9.99003 11.1212L11.8283 11.9091C11.8441 11.8723 11.8627 11.8456 11.8859 11.8222L10.4656 10.4141ZM9.99003 11.1212C9.86926 11.403 9.8125 11.6995 9.8125 12H11.8125C11.8125 11.9548 11.8202 11.928 11.8283 11.9091L9.99003 11.1212Z" fill="black"/>
</svg>
