<svg width="18" height="18" viewBox="0 0 18 18" fill="none" xmlns="http://www.w3.org/2000/svg">
<path id="gearshape" d="M8.21094 17.3516C7.90885 17.3516 7.64844 17.2656 7.42969 17.0938C7.21615 16.9271 7.07552 16.6979 7.00781 16.4062L6.66406 14.9453L6.41406 14.8594L5.14844 15.6406C4.89323 15.8021 4.6276 15.8646 4.35156 15.8281C4.07552 15.7917 3.83073 15.6667 3.61719 15.4531L2.53125 14.3672C2.3125 14.1536 2.1849 13.9089 2.14844 13.6328C2.11719 13.3568 2.18229 13.0938 2.34375 12.8438L3.13281 11.5781L3.04688 11.3438L1.58594 11C1.29948 10.9323 1.07031 10.7891 0.898438 10.5703C0.726562 10.3516 0.640625 10.0938 0.640625 9.79688V8.25C0.640625 7.95312 0.723958 7.69531 0.890625 7.47656C1.0625 7.25781 1.29427 7.11458 1.58594 7.04688L3.03125 6.69531L3.125 6.44531L2.33594 5.17969C2.17448 4.92969 2.10938 4.66927 2.14062 4.39844C2.17708 4.1224 2.30469 3.875 2.52344 3.65625L3.60938 2.5625C3.82292 2.35417 4.0651 2.23177 4.33594 2.19531C4.61198 2.15885 4.8776 2.21875 5.13281 2.375L6.39844 3.15625L6.66406 3.05469L7.00781 1.59375C7.07552 1.30729 7.21615 1.07812 7.42969 0.90625C7.64844 0.734375 7.90885 0.648438 8.21094 0.648438H9.78906C10.0911 0.648438 10.349 0.734375 10.5625 0.90625C10.7812 1.07812 10.9245 1.30729 10.9922 1.59375L11.3281 3.05469L11.5938 3.15625L12.8672 2.375C13.1172 2.21875 13.3802 2.15885 13.6562 2.19531C13.9323 2.23177 14.1745 2.35417 14.3828 2.5625L15.4766 3.65625C15.6901 3.875 15.8151 4.1224 15.8516 4.39844C15.888 4.66927 15.8255 4.92969 15.6641 5.17969L14.8672 6.44531L14.9688 6.69531L16.4141 7.04688C16.7005 7.11458 16.9297 7.25781 17.1016 7.47656C17.2734 7.69531 17.3594 7.95312 17.3594 8.25V9.79688C17.3594 10.0938 17.2734 10.3516 17.1016 10.5703C16.9297 10.7891 16.7005 10.9323 16.4141 11L14.9531 11.3438L14.8594 11.5781L15.6562 12.8438C15.8177 13.0938 15.8802 13.3568 15.8438 13.6328C15.8073 13.9089 15.6823 14.1536 15.4688 14.3672L14.375 15.4531C14.1615 15.6667 13.9167 15.7917 13.6406 15.8281C13.3646 15.8646 13.1016 15.8021 12.8516 15.6406L11.5781 14.8594L11.3281 14.9453L10.9922 16.4062C10.9245 16.6979 10.7812 16.9271 10.5625 17.0938C10.349 17.2656 10.0911 17.3516 9.78906 17.3516H8.21094ZM8.33594 16.1328H9.66406C9.79427 16.1328 9.86719 16.0729 9.88281 15.9531L10.3594 14.0156C10.599 13.9583 10.8255 13.8854 11.0391 13.7969C11.2526 13.7031 11.4427 13.6042 11.6094 13.5L13.3125 14.5469C13.4115 14.6146 13.5104 14.6016 13.6094 14.5078L14.5234 13.5859C14.612 13.5078 14.6224 13.4115 14.5547 13.2969L13.5078 11.6094C13.6016 11.4427 13.6927 11.2526 13.7812 11.0391C13.875 10.8255 13.9531 10.599 14.0156 10.3594L15.9609 9.89844C16.0807 9.8776 16.1406 9.80208 16.1406 9.67188V8.36719C16.1406 8.24219 16.0807 8.16667 15.9609 8.14062L14.0234 7.67188C13.9609 7.41667 13.8802 7.17969 13.7812 6.96094C13.6823 6.74219 13.5964 6.5599 13.5234 6.41406L14.5625 4.72656C14.6354 4.61198 14.6276 4.51042 14.5391 4.42188L13.6172 3.51562C13.5234 3.43229 13.4219 3.41927 13.3125 3.47656L11.6172 4.50781C11.4453 4.41406 11.2526 4.32292 11.0391 4.23438C10.8307 4.14062 10.6042 4.0625 10.3594 4L9.88281 2.04688C9.86719 1.92708 9.79427 1.86719 9.66406 1.86719H8.33594C8.20573 1.86719 8.13021 1.92708 8.10938 2.04688L7.64844 3.98438C7.41406 4.04688 7.18229 4.125 6.95312 4.21875C6.72917 4.3125 6.53385 4.40625 6.36719 4.5L4.67969 3.47656C4.57552 3.41927 4.47656 3.43229 4.38281 3.51562L3.45312 4.42188C3.36979 4.51042 3.36198 4.61198 3.42969 4.72656L4.46875 6.41406C4.40104 6.5599 4.3151 6.74219 4.21094 6.96094C4.11198 7.17969 4.03125 7.41667 3.96875 7.67188L2.03906 8.14062C1.91927 8.16667 1.85938 8.24219 1.85938 8.36719V9.67188C1.85938 9.80208 1.91927 9.8776 2.03906 9.89844L3.97656 10.3594C4.03906 10.599 4.11719 10.8255 4.21094 11.0391C4.30469 11.2526 4.39583 11.4427 4.48438 11.6094L3.4375 13.2969C3.375 13.4115 3.38542 13.5078 3.46875 13.5859L4.39062 14.5078C4.48958 14.6016 4.58594 14.6146 4.67969 14.5469L6.38281 13.5C6.54948 13.6042 6.73958 13.7031 6.95312 13.7969C7.17188 13.8854 7.40104 13.9583 7.64062 14.0156L8.10938 15.9531C8.13021 16.0729 8.20573 16.1328 8.33594 16.1328ZM9 11.9844C8.45312 11.9844 7.95312 11.849 7.5 11.5781C7.05208 11.3073 6.69271 10.9479 6.42188 10.5C6.15104 10.0469 6.01562 9.54688 6.01562 9C6.01562 8.45833 6.15104 7.96354 6.42188 7.51562C6.69271 7.0625 7.05208 6.70312 7.5 6.4375C7.95312 6.16667 8.45312 6.03125 9 6.03125C9.54688 6.03125 10.0443 6.16667 10.4922 6.4375C10.9453 6.70312 11.3047 7.0625 11.5703 7.51562C11.8411 7.96354 11.9766 8.45833 11.9766 9C11.9766 9.54688 11.8411 10.0469 11.5703 10.5C11.3047 10.9531 10.9453 11.3151 10.4922 11.5859C10.0443 11.8516 9.54688 11.9844 9 11.9844ZM9 10.7734C9.31771 10.7734 9.60938 10.6927 9.875 10.5312C10.1406 10.3698 10.3516 10.1562 10.5078 9.89062C10.6693 9.61979 10.75 9.32292 10.75 9C10.75 8.67708 10.6693 8.38281 10.5078 8.11719C10.3516 7.85156 10.1406 7.64062 9.875 7.48438C9.60938 7.32292 9.31771 7.24219 9 7.24219C8.67708 7.24219 8.38021 7.32292 8.10938 7.48438C7.84375 7.64062 7.63021 7.85156 7.46875 8.11719C7.3125 8.38281 7.23438 8.67708 7.23438 9C7.23438 9.32812 7.3125 9.6276 7.46875 9.89844C7.63021 10.1641 7.84375 10.3776 8.10938 10.5391C8.38021 10.6953 8.67708 10.7734 9 10.7734Z" fill="#686969"/>
</svg>
