<svg width="24" height="24" viewBox="0 0 24 24" fill="none" xmlns="http://www.w3.org/2000/svg">
<path d="M7.7722 18.5C7.54698 18.5 7.36036 18.4394 7.21236 18.3182C7.07079 18.1909 7 18.0212 7 17.8091C7 17.603 7.07079 17.4394 7.21236 17.3182C7.35393 17.197 7.53732 17.1364 7.76255 17.1364H9.93436L12.2799 6.86364H10.1178C9.89254 6.86364 9.70592 6.80303 9.55791 6.68182C9.41634 6.55455 9.34556 6.38485 9.34556 6.17273C9.34556 5.96667 9.41634 5.80303 9.55791 5.68182C9.69949 5.56061 9.88288 5.5 10.1081 5.5H16.2375C16.4627 5.5 16.6461 5.56061 16.7876 5.68182C16.9292 5.80303 17 5.96667 17 6.17273C17 6.38485 16.926 6.55455 16.778 6.68182C16.6364 6.80303 16.453 6.86364 16.2278 6.86364H14.0656L11.7201 17.1364H13.8822C14.1139 17.1364 14.3005 17.197 14.4421 17.3182C14.5837 17.4394 14.6544 17.603 14.6544 17.8091C14.6544 18.0212 14.5804 18.1909 14.4324 18.3182C14.2909 18.4394 14.1042 18.5 13.8726 18.5H7.7722Z" fill="#5E5E5E"/>
</svg>
