<svg width="25" height="24" viewBox="0 0 25 24" fill="none" xmlns="http://www.w3.org/2000/svg">
<path d="M6.5127 7.14551C6.37142 7.14551 6.25065 7.09538 6.15039 6.99512C6.05013 6.89486 6 6.77181 6 6.62598C6 6.4847 6.05013 6.36393 6.15039 6.26367C6.25065 6.16341 6.37142 6.11328 6.5127 6.11328H19.248C19.3939 6.11328 19.5169 6.16341 19.6172 6.26367C19.722 6.36393 19.7744 6.4847 19.7744 6.62598C19.7744 6.77181 19.722 6.89486 19.6172 6.99512C19.5169 7.09538 19.3939 7.14551 19.248 7.14551H6.5127ZM6.5127 10.7275C6.37142 10.7275 6.25065 10.6774 6.15039 10.5771C6.05013 10.4769 6 10.3538 6 10.208C6 10.0622 6.05013 9.94141 6.15039 9.8457C6.25065 9.74544 6.37142 9.69531 6.5127 9.69531H14.2031C14.349 9.69531 14.472 9.74544 14.5723 9.8457C14.6725 9.94141 14.7227 10.0622 14.7227 10.208C14.7227 10.3538 14.6725 10.4769 14.5723 10.5771C14.472 10.6774 14.349 10.7275 14.2031 10.7275H6.5127ZM6.5127 14.3096C6.37142 14.3096 6.25065 14.2594 6.15039 14.1592C6.05013 14.0589 6 13.9359 6 13.79C6 13.6442 6.05013 13.5234 6.15039 13.4277C6.25065 13.3275 6.37142 13.2773 6.5127 13.2773H19.248C19.3939 13.2773 19.5169 13.3275 19.6172 13.4277C19.722 13.5234 19.7744 13.6442 19.7744 13.79C19.7744 13.9359 19.722 14.0589 19.6172 14.1592C19.5169 14.2594 19.3939 14.3096 19.248 14.3096H6.5127ZM6.5127 17.8848C6.37142 17.8848 6.25065 17.8346 6.15039 17.7344C6.05013 17.6387 6 17.5179 6 17.3721C6 17.2262 6.05013 17.1032 6.15039 17.0029C6.25065 16.9027 6.37142 16.8525 6.5127 16.8525H14.2031C14.349 16.8525 14.472 16.9027 14.5723 17.0029C14.6725 17.1032 14.7227 17.2262 14.7227 17.3721C14.7227 17.5179 14.6725 17.6387 14.5723 17.7344C14.472 17.8346 14.349 17.8848 14.2031 17.8848H6.5127Z" fill="#5E5E5E"/>
</svg>
