<svg class="animate-spin text-tt-primary" xmlns="http://www.w3.org/2000/svg" viewBox="0 0 96 96" fill="none">
	<path d="M0 48C-7.5944e-07 56.687 2.35747 65.2111 6.82106 72.6636C11.2847 80.1162 17.687 86.2177 25.3456 90.3176C33.0042 94.4176 41.6319 96.3623 50.3088 95.9444C58.9858 95.5266 67.3867 92.7618 74.6158 87.9449L72.9904 85.5054C66.2027 90.0282 58.3148 92.6241 50.1678 93.0164C42.0208 93.4087 33.92 91.5828 26.7292 87.7332C19.5383 83.8836 13.5269 78.1548 9.33593 71.1574C5.14493 64.16 2.93144 56.1565 2.93144 48H0Z" fill="#F6F7F8" />
	<path d="M74.6057 87.9517C81.5072 83.3556 87.1004 77.0502 90.8403 69.6497C94.5802 62.2492 96.3392 54.0062 95.946 45.7237C95.5528 37.4413 93.0207 29.4019 88.5965 22.3891C84.1724 15.3762 78.007 9.62898 70.7011 5.70746C63.3953 1.78595 55.1982 -0.176135 46.9085 0.012411C38.6189 0.200957 30.5195 2.5337 23.3995 6.78333C16.2795 11.033 10.3818 17.0545 6.28101 24.2613C2.18026 31.4681 0.0163317 39.6142 9.20593e-05 47.906L2.93153 47.9117C2.94678 40.1264 4.97855 32.4777 8.82886 25.7111C12.6792 18.9444 18.2167 13.2906 24.9019 9.3005C31.587 5.3104 39.1918 3.12013 46.9752 2.9431C54.7586 2.76606 62.4551 4.60832 69.3147 8.29034C76.1744 11.9724 81.9633 17.3686 86.1172 23.9532C90.2712 30.5377 92.6487 38.0861 93.0179 45.8627C93.3871 53.6394 91.7354 61.379 88.224 68.3275C84.7125 75.276 79.4609 81.1964 72.9809 85.5117L74.6057 87.9517Z" fill="currentColor" />
</svg>
