<svg width="14" height="20" viewBox="0 0 14 20" fill="none" xmlns="http://www.w3.org/2000/svg">
    <path d="M2.52734 19.7754C1.8112 19.7754 1.26432 19.5801 0.886719 19.1895C0.515625 18.7988 0.330078 18.2194 0.330078 17.4512V10.7227C0.330078 9.95443 0.515625 9.37826 0.886719 8.99414C1.26432 8.60352 1.8112 8.4082 2.52734 8.4082H11.4629C12.179 8.4082 12.7227 8.60352 13.0938 8.99414C13.4714 9.37826 13.6602 9.95443 13.6602 10.7227V17.4512C13.6602 18.2194 13.4714 18.7988 13.0938 19.1895C12.7227 19.5801 12.179 19.7754 11.4629 19.7754H2.52734ZM2.03906 9.16016V6.07422C2.03906 4.85026 2.27344 3.83464 2.74219 3.02734C3.21745 2.22005 3.83268 1.61784 4.58789 1.2207C5.3431 0.817057 6.14388 0.615234 6.99023 0.615234C7.8431 0.615234 8.64714 0.817057 9.40234 1.2207C10.1576 1.61784 10.7695 2.22005 11.2383 3.02734C11.7135 3.83464 11.9512 4.85026 11.9512 6.07422V9.16016H10.4082V5.85938C10.4082 5.03906 10.2487 4.34896 9.92969 3.78906C9.61719 3.22917 9.20052 2.80599 8.67969 2.51953C8.16536 2.23307 7.60221 2.08984 6.99023 2.08984C6.38477 2.08984 5.82161 2.23307 5.30078 2.51953C4.78646 2.80599 4.37305 3.22917 4.06055 3.78906C3.74805 4.34896 3.5918 5.03906 3.5918 5.85938V9.16016H2.03906Z" fill="#BCC1C6"/>
</svg>