<svg width="15" height="20" viewBox="0 0 15 20" fill="none" xmlns="http://www.w3.org/2000/svg">
<path d="M8.32812 10.2188C8.08333 10.4688 7.83594 10.5417 7.58594 10.4375C7.34115 10.3281 7.16667 10.1094 7.0625 9.78125C6.90625 9.27604 6.78646 8.75781 6.70312 8.22656C6.61979 7.6901 6.57031 7.1224 6.55469 6.52344C6.53906 5.92448 6.55208 5.28125 6.59375 4.59375L6.15625 4.19531C5.91667 3.98177 5.75781 3.73958 5.67969 3.46875C5.60156 3.19792 5.60156 2.92448 5.67969 2.64844C5.75781 2.3724 5.90885 2.11719 6.13281 1.88281C6.48698 1.53906 6.8776 1.36979 7.30469 1.375C7.73177 1.375 8.11198 1.55208 8.44531 1.90625L8.85938 2.34375C9.55729 2.30208 10.2057 2.29167 10.8047 2.3125C11.4036 2.32812 11.9688 2.3776 12.5 2.46094C13.0312 2.54427 13.5443 2.66667 14.0391 2.82812C14.2526 2.89583 14.4193 2.9974 14.5391 3.13281C14.6641 3.26823 14.724 3.41927 14.7188 3.58594C14.7188 3.7526 14.6406 3.91146 14.4844 4.0625L8.32812 10.2188ZM6.49219 3.07031L5.09375 1.67188C4.97917 1.55729 4.92188 1.41927 4.92188 1.25781C4.92708 1.09635 4.98438 0.960938 5.09375 0.851562C5.20833 0.736979 5.34375 0.679688 5.5 0.679688C5.66146 0.674479 5.80208 0.731771 5.92188 0.851562L7.32031 2.23438L6.49219 3.07031ZM11.8594 9.72656C11.6094 9.72656 11.3672 9.68229 11.1328 9.59375C10.8984 9.50521 10.6849 9.375 10.4922 9.20312L13.4375 6.25781C13.7917 6.64323 13.9688 7.09896 13.9688 7.625C13.9688 8.00521 13.8724 8.35417 13.6797 8.67188C13.4922 8.98958 13.237 9.24479 12.9141 9.4375C12.5964 9.63021 12.2448 9.72656 11.8594 9.72656ZM1.75781 11.25L0.90625 10.3359L6.82812 4.89062L7.6875 5.79688L1.75781 11.25ZM1.5 11.8516C1.15625 11.8516 0.867188 11.7344 0.632812 11.5C0.398438 11.2656 0.28125 10.9766 0.28125 10.6328C0.28125 10.2943 0.398438 10.0078 0.632812 9.77344C0.867188 9.53385 1.15625 9.41406 1.5 9.41406C1.83854 9.41406 2.125 9.53385 2.35938 9.77344C2.59896 10.0078 2.71875 10.2943 2.71875 10.6328C2.71875 10.9766 2.59896 11.2656 2.35938 11.5C2.125 11.7344 1.83854 11.8516 1.5 11.8516ZM4.67188 14.625L0.796875 10.7578L1.67969 9.875L5.5625 13.7422L4.67188 14.625ZM4.90625 15.4375C4.5625 15.4375 4.27344 15.3203 4.03906 15.0859C3.80469 14.8516 3.6875 14.5625 3.6875 14.2188C3.6875 13.8802 3.80469 13.5938 4.03906 13.3594C4.27344 13.1198 4.5625 13 4.90625 13C5.24479 13 5.53125 13.1198 5.76562 13.3594C6.00521 13.5938 6.125 13.8802 6.125 14.2188C6.125 14.5625 6.00521 14.8516 5.76562 15.0859C5.53125 15.3203 5.24479 15.4375 4.90625 15.4375ZM4.27344 18.0234V14.25H5.53125V18.0234H4.27344ZM1.17969 19.125C1.03385 19.125 0.916667 19.0781 0.828125 18.9844C0.739583 18.8906 0.695312 18.7656 0.695312 18.6094C0.695312 18.3177 0.8125 18.0781 1.04688 17.8906C1.28125 17.7031 1.59635 17.6094 1.99219 17.6094H8.67969C9.07552 17.6094 9.39062 17.7031 9.625 17.8906C9.85938 18.0781 9.97656 18.3177 9.97656 18.6094C9.97656 18.7656 9.93229 18.8906 9.84375 18.9844C9.75521 19.0781 9.63802 19.125 9.49219 19.125H1.17969Z" fill="#9B9EA1"/>
</svg>
