<svg width="9" height="12" viewBox="0 0 9 12" fill="none" xmlns="http://www.w3.org/2000/svg">
<path d="M0.617188 11.4453C0.434896 11.4453 0.283854 11.3932 0.164062 11.2891C0.0494792 11.1797 -0.0078125 11.0339 -0.0078125 10.8516C-0.0078125 10.6745 0.0494792 10.5339 0.164062 10.4297C0.278646 10.3255 0.427083 10.2734 0.609375 10.2734H2.36719L4.26562 1.44531H2.51562C2.33333 1.44531 2.18229 1.39323 2.0625 1.28906C1.94792 1.17969 1.89062 1.03385 1.89062 0.851562C1.89062 0.674479 1.94792 0.533854 2.0625 0.429688C2.17708 0.325521 2.32552 0.273438 2.50781 0.273438H7.46875C7.65104 0.273438 7.79948 0.325521 7.91406 0.429688C8.02865 0.533854 8.08594 0.674479 8.08594 0.851562C8.08594 1.03385 8.02604 1.17969 7.90625 1.28906C7.79167 1.39323 7.64323 1.44531 7.46094 1.44531H5.71094L3.8125 10.2734H5.5625C5.75 10.2734 5.90104 10.3255 6.01562 10.4297C6.13021 10.5339 6.1875 10.6745 6.1875 10.8516C6.1875 11.0339 6.1276 11.1797 6.00781 11.2891C5.89323 11.3932 5.74219 11.4453 5.55469 11.4453H0.617188Z" fill="black"/>
</svg>
