<svg width="18" height="16" viewBox="0 0 18 16" fill="none" xmlns="http://www.w3.org/2000/svg">
<path d="M1.1875 13.9141C1.04688 13.7214 0.989583 13.5521 1.01562 13.4062C1.04688 13.2604 1.125 13.1484 1.25 13.0703C1.38021 12.9818 1.51823 12.9375 1.66406 12.9375C1.8099 12.9375 1.97135 12.9271 2.14844 12.9062C2.33073 12.8854 2.53385 12.7943 2.75781 12.6328C2.95573 12.4922 3.09115 12.3151 3.16406 12.1016C3.23698 11.8828 3.29948 11.6458 3.35156 11.3906C3.40885 11.1354 3.50521 10.8776 3.64062 10.6172C3.77604 10.3568 4.00521 10.112 4.32812 9.88281C4.70312 9.61719 5.125 9.47917 5.59375 9.46875C6.0625 9.45833 6.52083 9.56771 6.96875 9.79688C7.41667 10.026 7.79688 10.3672 8.10938 10.8203C8.46354 11.3203 8.66146 11.8333 8.70312 12.3594C8.74479 12.8854 8.64062 13.388 8.39062 13.8672C8.14062 14.3516 7.75 14.7786 7.21875 15.1484C6.76042 15.4661 6.25 15.6693 5.6875 15.7578C5.13021 15.8464 4.56771 15.8307 4 15.7109C3.43229 15.5964 2.90104 15.3854 2.40625 15.0781C1.91667 14.7708 1.51042 14.3828 1.1875 13.9141ZM8.40625 9.66406C8.125 9.3776 7.80729 9.13802 7.45312 8.94531C7.10417 8.7474 6.77604 8.6224 6.46875 8.57031C6.52083 8.26302 6.61979 7.97396 6.76562 7.70312C6.91667 7.43229 7.125 7.16406 7.39062 6.89844C7.43229 6.85677 7.47396 6.8151 7.51562 6.77344C7.5625 6.73177 7.60938 6.6901 7.65625 6.64844C8.11979 6.73698 8.5599 6.89323 8.97656 7.11719C9.39323 7.34115 9.76823 7.6224 10.1016 7.96094C10.4401 8.29427 10.724 8.67188 10.9531 9.09375C11.1823 9.51042 11.3385 9.95312 11.4219 10.4219C11.3854 10.4688 11.3464 10.513 11.3047 10.5547C11.263 10.5964 11.2214 10.638 11.1797 10.6797C10.9141 10.9453 10.6484 11.1536 10.3828 11.3047C10.1172 11.4557 9.82552 11.5573 9.50781 11.6094C9.45573 11.3021 9.33073 10.974 9.13281 10.625C8.9349 10.2708 8.69271 9.95052 8.40625 9.66406ZM15.7734 0.375C16.0234 0.192708 16.276 0.0989583 16.5312 0.09375C16.7917 0.0885417 17.0312 0.151042 17.25 0.28125C17.474 0.411458 17.651 0.585938 17.7812 0.804688C17.9115 1.02344 17.9766 1.26562 17.9766 1.53125C17.9766 1.79167 17.8854 2.04948 17.7031 2.30469C17.651 2.3724 17.5312 2.53906 17.3438 2.80469C17.1615 3.07031 16.9271 3.40625 16.6406 3.8125C16.3542 4.21875 16.0286 4.66927 15.6641 5.16406C15.3047 5.65885 14.9219 6.17188 14.5156 6.70312C14.1146 7.22917 13.7057 7.75 13.2891 8.26562C12.8776 8.78125 12.474 9.26302 12.0781 9.71094C11.7969 8.8151 11.3281 8.04167 10.6719 7.39062C10.0208 6.73958 9.2526 6.27344 8.36719 5.99219C8.8151 5.60156 9.29688 5.20052 9.8125 4.78906C10.3281 4.3724 10.8516 3.96354 11.3828 3.5625C11.9141 3.15625 12.4271 2.77344 12.9219 2.41406C13.4167 2.04948 13.8646 1.72396 14.2656 1.4375C14.6719 1.15104 15.0078 0.914062 15.2734 0.726562C15.5391 0.539062 15.7057 0.421875 15.7734 0.375Z" fill="#5E5E5E"/>
</svg>
