<svg width="17" height="17" viewBox="0 0 17 17" fill="none" xmlns="http://www.w3.org/2000/svg">
    <path d="M8.5 16.8281C7.41146 16.8281 6.38542 16.6198 5.42188 16.2031C4.46354 15.7865 3.61719 15.2109 2.88281 14.4766C2.14844 13.7422 1.57292 12.8958 1.15625 11.9375C0.739583 10.974 0.53125 9.94792 0.53125 8.85938C0.53125 7.77083 0.739583 6.7474 1.15625 5.78906C1.57292 4.82552 2.14583 3.97656 2.875 3.24219C3.60938 2.50781 4.45573 1.93229 5.41406 1.51562C6.3776 1.09896 7.40365 0.890625 8.49219 0.890625C9.58073 0.890625 10.6068 1.09896 11.5703 1.51562C12.5339 1.93229 13.3828 2.50781 14.1172 3.24219C14.8516 3.97656 15.4271 4.82552 15.8438 5.78906C16.2604 6.7474 16.4688 7.77083 16.4688 8.85938C16.4688 9.94792 16.2604 10.974 15.8438 11.9375C15.4271 12.8958 14.8516 13.7422 14.1172 14.4766C13.3828 15.2109 12.5339 15.7865 11.5703 16.2031C10.612 16.6198 9.58854 16.8281 8.5 16.8281ZM8.5 15.5C9.42188 15.5 10.2839 15.3281 11.0859 14.9844C11.888 14.6406 12.5938 14.1667 13.2031 13.5625C13.8125 12.9531 14.2865 12.2474 14.625 11.4453C14.9688 10.6432 15.1406 9.78125 15.1406 8.85938C15.1406 7.9375 14.9688 7.07552 14.625 6.27344C14.2812 5.47135 13.8047 4.76562 13.1953 4.15625C12.5911 3.54688 11.8854 3.07292 11.0781 2.73438C10.276 2.39062 9.41406 2.21875 8.49219 2.21875C7.57031 2.21875 6.70833 2.39062 5.90625 2.73438C5.10417 3.07292 4.40104 3.54688 3.79688 4.15625C3.19271 4.76562 2.71875 5.47135 2.375 6.27344C2.03646 7.07552 1.86719 7.9375 1.86719 8.85938C1.86719 9.78125 2.03646 10.6432 2.375 11.4453C2.71875 12.2474 3.19271 12.9531 3.79688 13.5625C4.40625 14.1667 5.11198 14.6406 5.91406 14.9844C6.71615 15.3281 7.57812 15.5 8.5 15.5ZM8.64844 13.7891C8.44531 13.7891 8.29948 13.7188 8.21094 13.5781C8.1276 13.4323 8.04948 13.25 7.97656 13.0312L7.28125 10.7266C7.20833 10.4609 7.24219 10.2552 7.38281 10.1094L11.8438 5.30469C11.901 5.24219 11.901 5.1875 11.8438 5.14062C11.7812 5.09375 11.7266 5.09635 11.6797 5.14844L6.90625 9.625C6.8125 9.70833 6.71875 9.75521 6.625 9.76562C6.53646 9.77083 6.42188 9.7526 6.28125 9.71094L3.90625 9C3.69792 8.93229 3.52604 8.85417 3.39062 8.76562C3.26042 8.67708 3.19531 8.53385 3.19531 8.33594C3.19531 8.17969 3.25521 8.04688 3.375 7.9375C3.5 7.82292 3.65104 7.73177 3.82812 7.66406L11.3516 4.78906C11.5599 4.70573 11.7344 4.66406 11.875 4.66406C12.0104 4.66406 12.1172 4.70573 12.1953 4.78906C12.2786 4.86719 12.3203 4.97656 12.3203 5.11719C12.3203 5.2526 12.2812 5.42448 12.2031 5.63281L9.33594 13.1172C9.25781 13.3203 9.16146 13.4844 9.04688 13.6094C8.9375 13.7292 8.80469 13.7891 8.64844 13.7891Z" fill="#9B9EA1"/>
</svg>
