<svg width="18" height="19" viewBox="0 0 18 19" fill="none" xmlns="http://www.w3.org/2000/svg">
<path d="M3.07227 18.9531C2.05013 18.9531 1.2819 18.6992 0.767578 18.1914C0.259766 17.6901 0.00585938 16.9349 0.00585938 15.9258V4.00195C0.00585938 2.99284 0.259766 2.23763 0.767578 1.73633C1.2819 1.22852 2.05013 0.974609 3.07227 0.974609H14.918C15.9401 0.974609 16.7051 1.22852 17.2129 1.73633C17.7272 2.23763 17.9844 2.99284 17.9844 4.00195V15.9258C17.9844 16.9349 17.7272 17.6901 17.2129 18.1914C16.7051 18.6992 15.9401 18.9531 14.918 18.9531H3.07227ZM3.0918 17.3809H14.8984C15.3802 17.3809 15.7513 17.2539 16.0117 17C16.2786 16.7396 16.4121 16.3555 16.4121 15.8477V4.08008C16.4121 3.57227 16.2786 3.19141 16.0117 2.9375C15.7513 2.67708 15.3802 2.54688 14.8984 2.54688H3.0918C2.60352 2.54688 2.22917 2.67708 1.96875 2.9375C1.70833 3.19141 1.57812 3.57227 1.57812 4.08008V15.8477C1.57812 16.3555 1.70833 16.7396 1.96875 17C2.22917 17.2539 2.60352 17.3809 3.0918 17.3809ZM2.28125 17.957C2.42448 17.2734 2.69466 16.6419 3.0918 16.0625C3.48893 15.4831 3.98698 14.9818 4.58594 14.5586C5.1849 14.1354 5.85872 13.8066 6.60742 13.5723C7.35612 13.3379 8.15365 13.2207 9 13.2207C9.85286 13.2207 10.6536 13.3379 11.4023 13.5723C12.151 13.8066 12.8216 14.1354 13.4141 14.5586C14.013 14.9818 14.5111 15.4831 14.9082 16.0625C15.3053 16.6419 15.5755 17.2734 15.7188 17.957H2.28125ZM9 11.5898C8.375 11.5833 7.81185 11.4206 7.31055 11.1016C6.80924 10.7826 6.40885 10.3496 6.10938 9.80273C5.81641 9.24935 5.66667 8.62435 5.66016 7.92773C5.66016 7.27669 5.80664 6.68099 6.09961 6.14062C6.39909 5.59375 6.79948 5.15755 7.30078 4.83203C7.80859 4.50651 8.375 4.34375 9 4.34375C9.61849 4.34375 10.1784 4.50651 10.6797 4.83203C11.1875 5.15755 11.5911 5.59375 11.8906 6.14062C12.1901 6.68099 12.3398 7.27669 12.3398 7.92773C12.3398 8.62435 12.1901 9.2526 11.8906 9.8125C11.5911 10.3659 11.1875 10.8021 10.6797 11.1211C10.1784 11.4401 9.61849 11.5964 9 11.5898Z" fill="#BCC1C6"/>
</svg>
