<svg width="26" height="19" viewBox="0 0 26 19" fill="none" xmlns="http://www.w3.org/2000/svg">
<path d="M0.431641 5.0625C0.255859 4.93229 0.167969 4.76302 0.167969 4.55469C0.167969 4.33984 0.255859 4.16732 0.431641 4.03711L3.04883 2.07422C3.30924 1.87891 3.57292 1.83008 3.83984 1.92773C4.10677 2.01888 4.24023 2.24023 4.24023 2.5918V3.77344H6.75977C6.97461 3.77344 7.1569 3.84831 7.30664 3.99805C7.45638 4.14779 7.53125 4.32682 7.53125 4.53516C7.53125 4.75 7.45638 4.93229 7.30664 5.08203C7.1569 5.22526 6.97461 5.29688 6.75977 5.29688H4.24023V6.50781C4.24023 6.83984 4.11003 7.05794 3.84961 7.16211C3.58919 7.26628 3.32227 7.21419 3.04883 7.00586L0.431641 5.0625ZM18.459 4.53516C18.459 4.32682 18.5306 4.14779 18.6738 3.99805C18.8236 3.84831 19.0059 3.77344 19.2207 3.77344H21.7402V2.5918C21.7402 2.24023 21.8737 2.01888 22.1406 1.92773C22.4076 1.83008 22.6712 1.87891 22.9316 2.07422L25.5488 4.03711C25.7311 4.16732 25.8223 4.33984 25.8223 4.55469C25.8223 4.76302 25.7311 4.93229 25.5488 5.0625L22.9316 7.00586C22.6647 7.21419 22.3978 7.26628 22.1309 7.16211C21.8704 7.05794 21.7402 6.83984 21.7402 6.50781V5.29688H19.2207C19.0059 5.29688 18.8236 5.22526 18.6738 5.08203C18.5306 4.93229 18.459 4.75 18.459 4.53516ZM6.85742 18.1582C5.26237 18.1582 4.46484 17.6374 4.46484 16.5957C4.46484 15.9577 4.6569 15.2773 5.04102 14.5547C5.43164 13.832 5.99805 13.1517 6.74023 12.5137C7.48242 11.8691 8.3776 11.3451 9.42578 10.9414C10.4805 10.5378 11.6686 10.3359 12.9902 10.3359C14.3184 10.3359 15.5065 10.5378 16.5547 10.9414C17.6094 11.3451 18.5046 11.8691 19.2402 12.5137C19.9824 13.1517 20.5488 13.832 20.9395 14.5547C21.3301 15.2773 21.5254 15.9577 21.5254 16.5957C21.5254 17.6374 20.7246 18.1582 19.123 18.1582H6.85742ZM6.38867 16.6836H19.5918C19.722 16.6836 19.8132 16.6641 19.8652 16.625C19.9238 16.5859 19.9531 16.5143 19.9531 16.4102C19.9531 16.013 19.8001 15.554 19.4941 15.0332C19.1882 14.5059 18.7389 13.998 18.1465 13.5098C17.5605 13.0215 16.8346 12.6178 15.9688 12.2988C15.1029 11.9733 14.11 11.8105 12.9902 11.8105C11.8704 11.8105 10.8776 11.9733 10.0117 12.2988C9.15234 12.6178 8.42643 13.0215 7.83398 13.5098C7.24154 13.998 6.79232 14.5059 6.48633 15.0332C6.18685 15.554 6.03711 16.013 6.03711 16.4102C6.03711 16.5143 6.06315 16.5859 6.11523 16.625C6.17383 16.6641 6.26497 16.6836 6.38867 16.6836ZM13 9.125C12.2253 9.125 11.5189 8.91992 10.8809 8.50977C10.2428 8.0931 9.73177 7.53971 9.34766 6.84961C8.97005 6.15299 8.78125 5.38802 8.78125 4.55469C8.78125 3.72786 8.97005 2.97591 9.34766 2.29883C9.73177 1.62174 10.2428 1.08138 10.8809 0.677734C11.5189 0.274089 12.2253 0.0722656 13 0.0722656C13.7747 0.0722656 14.4811 0.270833 15.1191 0.667969C15.7637 1.0651 16.2747 1.60221 16.6523 2.2793C17.0299 2.94987 17.2188 3.70182 17.2188 4.53516C17.2188 5.375 17.0267 6.14323 16.6426 6.83984C16.265 7.52995 15.7572 8.08333 15.1191 8.5C14.4811 8.91667 13.7747 9.125 13 9.125ZM13 7.65039C13.4818 7.65039 13.9212 7.51042 14.3184 7.23047C14.722 6.95052 15.0443 6.57617 15.2852 6.10742C15.526 5.63216 15.6465 5.10807 15.6465 4.53516C15.6465 3.96875 15.526 3.46094 15.2852 3.01172C15.0508 2.55599 14.7318 2.19792 14.3281 1.9375C13.9245 1.67708 13.4818 1.54688 13 1.54688C12.5182 1.54688 12.0755 1.68034 11.6719 1.94727C11.2682 2.21419 10.946 2.57552 10.7051 3.03125C10.4707 3.48047 10.3535 3.98828 10.3535 4.55469C10.3535 5.1276 10.474 5.64844 10.7148 6.11719C10.9557 6.58594 11.278 6.96029 11.6816 7.24023C12.0853 7.51367 12.5247 7.65039 13 7.65039Z" fill="#5F6367"/>
</svg>
