<svg width="28" height="30" viewBox="0 0 28 30" fill="none" xmlns="http://www.w3.org/2000/svg">
<path d="M3.51562 29.0312C2.68229 29.0312 2.02604 28.8438 1.54688 28.4688C1.07812 28.1042 0.84375 27.599 0.84375 26.9531C0.84375 25.9531 1.14583 24.8958 1.75 23.7812C2.35417 22.6667 3.22917 21.625 4.375 20.6562C5.52083 19.6771 6.90104 18.8854 8.51562 18.2812C10.1406 17.6667 11.9635 17.3594 13.9844 17.3594C16.0156 17.3594 17.8385 17.6667 19.4531 18.2812C21.0781 18.8854 22.4583 19.6771 23.5938 20.6562C24.7396 21.625 25.6146 22.6667 26.2188 23.7812C26.8333 24.8958 27.1406 25.9531 27.1406 26.9531C27.1406 27.599 26.901 28.1042 26.4219 28.4688C25.9531 28.8438 25.3021 29.0312 24.4688 29.0312H3.51562ZM14 14.5625C12.8854 14.5625 11.8542 14.2604 10.9062 13.6562C9.95833 13.0417 9.19271 12.2188 8.60938 11.1875C8.03646 10.1458 7.75 8.97917 7.75 7.6875C7.75 6.41667 8.03646 5.27083 8.60938 4.25C9.19271 3.22917 9.95833 2.42188 10.9062 1.82812C11.8542 1.23438 12.8854 0.9375 14 0.9375C15.1146 0.9375 16.1458 1.22917 17.0938 1.8125C18.0417 2.39583 18.8021 3.19792 19.375 4.21875C19.9583 5.22917 20.25 6.375 20.25 7.65625C20.25 8.95833 19.9583 10.1302 19.375 11.1719C18.8021 12.2135 18.0417 13.0417 17.0938 13.6562C16.1458 14.2604 15.1146 14.5625 14 14.5625Z" fill="white"/>
</svg>
