<svg viewBox="0 0 24 24" xmlns="http://www.w3.org/2000/svg">
<path d="M5.55469 11.8594C5.55469 11.6667 5.6224 11.5026 5.75781 11.3672C5.89844 11.2266 6.0625 11.1562 6.25 11.1562H11.3047V6.10938C11.3047 5.92188 11.3724 5.76042 11.5078 5.625C11.6432 5.48438 11.8073 5.41406 12 5.41406C12.1927 5.41406 12.3568 5.48438 12.4922 5.625C12.6328 5.76042 12.7031 5.92188 12.7031 6.10938V11.1562H17.75C17.9375 11.1562 18.099 11.2266 18.2344 11.3672C18.375 11.5026 18.4453 11.6667 18.4453 11.8594C18.4453 12.0521 18.375 12.2161 18.2344 12.3516C18.099 12.487 17.9375 12.5547 17.75 12.5547H12.7031V17.6094C12.7031 17.7969 12.6328 17.9583 12.4922 18.0938C12.3568 18.2344 12.1927 18.3047 12 18.3047C11.8073 18.3047 11.6432 18.2344 11.5078 18.0938C11.3724 17.9583 11.3047 17.7969 11.3047 17.6094V12.5547H6.25C6.0625 12.5547 5.89844 12.487 5.75781 12.3516C5.6224 12.2161 5.55469 12.0521 5.55469 11.8594Z"/>
</svg>
