<svg width="24" height="25" viewBox="0 0 24 25" fill="none" xmlns="http://www.w3.org/2000/svg">
<path d="M12 24.293C10.3906 24.293 8.875 23.9844 7.45312 23.3672C6.03906 22.7578 4.78906 21.9141 3.70312 20.8359C2.625 19.75 1.77734 18.5 1.16016 17.0859C0.550781 15.6641 0.246094 14.1484 0.246094 12.5391C0.246094 10.9297 0.550781 9.41797 1.16016 8.00391C1.77734 6.58203 2.625 5.33203 3.70312 4.25391C4.78125 3.16797 6.02734 2.32031 7.44141 1.71094C8.86328 1.09375 10.3789 0.785156 11.9883 0.785156C13.5977 0.785156 15.1133 1.09375 16.5352 1.71094C17.957 2.32031 19.207 3.16797 20.2852 4.25391C21.3633 5.33203 22.2109 6.58203 22.8281 8.00391C23.4453 9.41797 23.7539 10.9297 23.7539 12.5391C23.7539 14.1484 23.4453 15.6641 22.8281 17.0859C22.2109 18.5 21.3633 19.75 20.2852 20.8359C19.207 21.9141 17.957 22.7578 16.5352 23.3672C15.1211 23.9844 13.6094 24.293 12 24.293ZM12 22.7812C13.4141 22.7812 14.7383 22.5156 15.9727 21.9844C17.2148 21.4531 18.3047 20.7188 19.2422 19.7812C20.1875 18.8438 20.9219 17.7578 21.4453 16.5234C21.9766 15.2812 22.2422 13.9531 22.2422 12.5391C22.2422 11.125 21.9766 9.80078 21.4453 8.56641C20.9141 7.32422 20.1797 6.23438 19.2422 5.29688C18.3047 4.35156 17.2148 3.61719 15.9727 3.09375C14.7383 2.5625 13.4102 2.29688 11.9883 2.29688C10.5742 2.29688 9.24609 2.5625 8.00391 3.09375C6.76953 3.61719 5.68359 4.35156 4.74609 5.29688C3.81641 6.23438 3.08594 7.32422 2.55469 8.56641C2.03125 9.80078 1.76953 11.125 1.76953 12.5391C1.76953 13.9531 2.03125 15.2812 2.55469 16.5234C3.08594 17.7578 3.82031 18.8438 4.75781 19.7812C5.69531 20.7188 6.78125 21.4531 8.01562 21.9844C9.25 22.5156 10.5781 22.7812 12 22.7812ZM6.66797 12.5391C6.66797 12.3125 6.73828 12.1289 6.87891 11.9883C7.01953 11.8477 7.20703 11.7773 7.44141 11.7773H11.2383V7.96875C11.2383 7.74219 11.3086 7.55859 11.4492 7.41797C11.5898 7.26953 11.7656 7.19531 11.9766 7.19531C12.2031 7.19531 12.3867 7.26562 12.5273 7.40625C12.668 7.54688 12.7383 7.73438 12.7383 7.96875V11.7773H16.5586C16.7773 11.7773 16.957 11.8477 17.0977 11.9883C17.2383 12.1289 17.3086 12.3125 17.3086 12.5391C17.3086 12.75 17.2383 12.9258 17.0977 13.0664C16.957 13.1992 16.7773 13.2656 16.5586 13.2656H12.7383V17.0859C12.7383 17.3125 12.668 17.4961 12.5273 17.6367C12.3867 17.7773 12.2031 17.8477 11.9766 17.8477C11.7656 17.8477 11.5898 17.7773 11.4492 17.6367C11.3086 17.4883 11.2383 17.3047 11.2383 17.0859V13.2656H7.44141C7.21484 13.2656 7.02734 13.1992 6.87891 13.0664C6.73828 12.9258 6.66797 12.75 6.66797 12.5391Z" fill="#5E5E5E"/>
</svg>
