<svg width="24" height="22" viewBox="0 0 24 22" fill="none" xmlns="http://www.w3.org/2000/svg">
<path d="M3.68945 21.418C2.68034 21.418 1.92188 21.1641 1.41406 20.6562C0.91276 20.1484 0.662109 19.3835 0.662109 18.3613V3.54688C0.662109 2.53125 0.91276 1.76628 1.41406 1.25195C1.92188 0.73763 2.68034 0.480469 3.68945 0.480469H14.0605C15.0697 0.480469 15.8249 0.73763 16.3262 1.25195C16.834 1.76628 17.0879 2.53125 17.0879 3.54688V8.06836H15.5156V3.57617C15.5156 3.08789 15.3854 2.71354 15.125 2.45312C14.8711 2.1862 14.4902 2.05273 13.9824 2.05273H3.76758C3.25977 2.05273 2.87565 2.1862 2.61523 2.45312C2.36133 2.71354 2.23438 3.08789 2.23438 3.57617V18.332C2.23438 18.8203 2.36133 19.1947 2.61523 19.4551C2.87565 19.7155 3.25977 19.8457 3.76758 19.8457H13.9824C14.4902 19.8457 14.8711 19.7155 15.125 19.4551C15.3854 19.1947 15.5156 18.8203 15.5156 18.332V13.8301H17.0879V18.3613C17.0879 19.3835 16.834 20.1484 16.3262 20.6562C15.8249 21.1641 15.0697 21.418 14.0605 21.418H3.68945ZM9.69531 11.7207C9.49349 11.7207 9.31771 11.6458 9.16797 11.4961C9.01823 11.3398 8.94336 11.1576 8.94336 10.9492C8.94336 10.7409 9.01823 10.5586 9.16797 10.4023C9.31771 10.2461 9.49349 10.168 9.69531 10.168H19.7246L21.1895 10.2363L20.4961 9.57227L18.9238 8.08789C18.7676 7.95117 18.6895 7.77214 18.6895 7.55078C18.6895 7.34896 18.7513 7.18294 18.875 7.05273C19.0052 6.91602 19.1712 6.84766 19.373 6.84766C19.5618 6.84766 19.7344 6.92578 19.8906 7.08203L23.0742 10.3828C23.1719 10.4805 23.237 10.5749 23.2695 10.666C23.3086 10.7572 23.3281 10.8516 23.3281 10.9492C23.3281 11.0469 23.3086 11.1413 23.2695 11.2324C23.237 11.3236 23.1719 11.418 23.0742 11.5156L19.8906 14.8164C19.7344 14.9661 19.5618 15.041 19.373 15.041C19.1712 15.041 19.0052 14.9727 18.875 14.8359C18.7513 14.6992 18.6895 14.5299 18.6895 14.3281C18.6895 14.1133 18.7676 13.9375 18.9238 13.8008L20.4961 12.3262L21.1895 11.6621L19.7246 11.7207H9.69531Z" fill="#E30611"/>
</svg>
