<svg width="24" height="24" viewBox="0 0 24 24" fill="none" xmlns="http://www.w3.org/2000/svg">
<path d="M5.62549 7.14648C5.48421 7.14648 5.36344 7.09635 5.26318 6.99609C5.16292 6.89583 5.11279 6.77279 5.11279 6.62695C5.11279 6.48568 5.16292 6.36491 5.26318 6.26465C5.36344 6.16439 5.48421 6.11426 5.62549 6.11426H18.3608C18.5067 6.11426 18.6297 6.16439 18.73 6.26465C18.8348 6.36491 18.8872 6.48568 18.8872 6.62695C18.8872 6.77279 18.8348 6.89583 18.73 6.99609C18.6297 7.09635 18.5067 7.14648 18.3608 7.14648H5.62549ZM5.62549 14.3105C5.48421 14.3105 5.36344 14.2604 5.26318 14.1602C5.16292 14.0599 5.11279 13.9368 5.11279 13.791C5.11279 13.6452 5.16292 13.5244 5.26318 13.4287C5.36344 13.3285 5.48421 13.2783 5.62549 13.2783H18.3608C18.5067 13.2783 18.6297 13.3285 18.73 13.4287C18.8348 13.5244 18.8872 13.6452 18.8872 13.791C18.8872 13.9368 18.8348 14.0599 18.73 14.1602C18.6297 14.2604 18.5067 14.3105 18.3608 14.3105H5.62549ZM10.6772 10.7285C10.5314 10.7285 10.4084 10.6784 10.3081 10.5781C10.2078 10.4779 10.1577 10.3548 10.1577 10.209C10.1577 10.0632 10.2078 9.94238 10.3081 9.84668C10.4084 9.74642 10.5314 9.69629 10.6772 9.69629H18.3608C18.5067 9.69629 18.6297 9.74642 18.73 9.84668C18.8348 9.94238 18.8872 10.0632 18.8872 10.209C18.8872 10.3548 18.8348 10.4779 18.73 10.5781C18.6297 10.6784 18.5067 10.7285 18.3608 10.7285H10.6772ZM10.6772 17.8857C10.5314 17.8857 10.4084 17.8356 10.3081 17.7354C10.2078 17.6396 10.1577 17.5189 10.1577 17.373C10.1577 17.2272 10.2078 17.1042 10.3081 17.0039C10.4084 16.9036 10.5314 16.8535 10.6772 16.8535H18.3608C18.5067 16.8535 18.6297 16.9036 18.73 17.0039C18.8348 17.1042 18.8872 17.2272 18.8872 17.373C18.8872 17.5189 18.8348 17.6396 18.73 17.7354C18.6297 17.8356 18.5067 17.8857 18.3608 17.8857H10.6772Z" fill="#5E5E5E"/>
</svg>
