<svg viewBox="0 0 24 24" xmlns="http://www.w3.org/2000/svg">
<path d="M6.30078 11.3555C5.80599 11.3555 5.43359 11.2305 5.18359 10.9805C4.93359 10.7253 4.80859 10.3398 4.80859 9.82422V6.33203C4.80859 5.81641 4.93359 5.43359 5.18359 5.18359C5.43359 4.93359 5.80599 4.80859 6.30078 4.80859H9.86328C10.3581 4.80859 10.7305 4.93359 10.9805 5.18359C11.2305 5.43359 11.3555 5.81641 11.3555 6.33203V9.82422C11.3555 10.3398 11.2305 10.7253 10.9805 10.9805C10.7305 11.2305 10.3581 11.3555 9.86328 11.3555H6.30078ZM6.31641 10.2539H9.83984C9.97526 10.2539 10.0768 10.2174 10.1445 10.1445C10.2174 10.0716 10.2539 9.96484 10.2539 9.82422V6.33203C10.2539 6.19141 10.2174 6.08724 10.1445 6.01953C10.0768 5.94661 9.97526 5.91016 9.83984 5.91016H6.31641C6.18099 5.91016 6.07943 5.94661 6.01172 6.01953C5.94401 6.08724 5.91016 6.19141 5.91016 6.33203V9.82422C5.91016 9.96484 5.94401 10.0716 6.01172 10.1445C6.07943 10.2174 6.18099 10.2539 6.31641 10.2539ZM14.1445 11.3555C13.6445 11.3555 13.2695 11.2305 13.0195 10.9805C12.7695 10.7253 12.6445 10.3398 12.6445 9.82422V6.33203C12.6445 5.81641 12.7695 5.43359 13.0195 5.18359C13.2695 4.93359 13.6445 4.80859 14.1445 4.80859H17.6992C18.194 4.80859 18.5664 4.93359 18.8164 5.18359C19.0664 5.43359 19.1914 5.81641 19.1914 6.33203V9.82422C19.1914 10.3398 19.0664 10.7253 18.8164 10.9805C18.5664 11.2305 18.194 11.3555 17.6992 11.3555H14.1445ZM14.1602 10.2539H17.6836C17.8242 10.2539 17.9258 10.2174 17.9883 10.1445C18.056 10.0716 18.0898 9.96484 18.0898 9.82422V6.33203C18.0898 6.19141 18.056 6.08724 17.9883 6.01953C17.9258 5.94661 17.8242 5.91016 17.6836 5.91016H14.1602C14.0195 5.91016 13.9154 5.94661 13.8477 6.01953C13.7799 6.08724 13.7461 6.19141 13.7461 6.33203V9.82422C13.7461 9.96484 13.7799 10.0716 13.8477 10.1445C13.9154 10.2174 14.0195 10.2539 14.1602 10.2539ZM6.30078 19.1914C5.80599 19.1914 5.43359 19.0664 5.18359 18.8164C4.93359 18.5664 4.80859 18.1836 4.80859 17.668V14.168C4.80859 13.6576 4.93359 13.2773 5.18359 13.0273C5.43359 12.7721 5.80599 12.6445 6.30078 12.6445H9.86328C10.3581 12.6445 10.7305 12.7721 10.9805 13.0273C11.2305 13.2773 11.3555 13.6576 11.3555 14.168V17.668C11.3555 18.1836 11.2305 18.5664 10.9805 18.8164C10.7305 19.0664 10.3581 19.1914 9.86328 19.1914H6.30078ZM6.31641 18.0898H9.83984C9.97526 18.0898 10.0768 18.0534 10.1445 17.9805C10.2174 17.9128 10.2539 17.8086 10.2539 17.668V14.1758C10.2539 14.0299 10.2174 13.9232 10.1445 13.8555C10.0768 13.7826 9.97526 13.7461 9.83984 13.7461H6.31641C6.18099 13.7461 6.07943 13.7826 6.01172 13.8555C5.94401 13.9232 5.91016 14.0299 5.91016 14.1758V17.668C5.91016 17.8086 5.94401 17.9128 6.01172 17.9805C6.07943 18.0534 6.18099 18.0898 6.31641 18.0898ZM14.1445 19.1914C13.6445 19.1914 13.2695 19.0664 13.0195 18.8164C12.7695 18.5664 12.6445 18.1836 12.6445 17.668V14.168C12.6445 13.6576 12.7695 13.2773 13.0195 13.0273C13.2695 12.7721 13.6445 12.6445 14.1445 12.6445H17.6992C18.194 12.6445 18.5664 12.7721 18.8164 13.0273C19.0664 13.2773 19.1914 13.6576 19.1914 14.168V17.668C19.1914 18.1836 19.0664 18.5664 18.8164 18.8164C18.5664 19.0664 18.194 19.1914 17.6992 19.1914H14.1445ZM14.1602 18.0898H17.6836C17.8242 18.0898 17.9258 18.0534 17.9883 17.9805C18.056 17.9128 18.0898 17.8086 18.0898 17.668V14.1758C18.0898 14.0299 18.056 13.9232 17.9883 13.8555C17.9258 13.7826 17.8242 13.7461 17.6836 13.7461H14.1602C14.0195 13.7461 13.9154 13.7826 13.8477 13.8555C13.7799 13.9232 13.7461 14.0299 13.7461 14.1758V17.668C13.7461 17.8086 13.7799 17.9128 13.8477 17.9805C13.9154 18.0534 14.0195 18.0898 14.1602 18.0898Z"/>
</svg>
