<svg width="152" height="25" viewBox="0 0 152 25" fill="none" xmlns="http://www.w3.org/2000/svg">
<path d="M2.456 5.152C1.96533 5.152 1.53867 4.97067 1.176 4.608C0.813333 4.24533 0.632 3.81867 0.632 3.328V2.464C0.632 1.97333 0.813333 1.54667 1.176 1.184C1.53867 0.821332 1.96533 0.639999 2.456 0.639999H16.728C17.2187 0.639999 17.6453 0.821332 18.008 1.184C18.3707 1.54667 18.552 1.97333 18.552 2.464V3.328C18.552 3.81867 18.3707 4.24533 18.008 4.608C17.6453 4.97067 17.2187 5.152 16.728 5.152H12.632C12.4613 5.152 12.376 5.23733 12.376 5.408V22.176C12.376 22.6667 12.1947 23.0933 11.832 23.456C11.4693 23.8187 11.0427 24 10.552 24H8.632C8.14133 24 7.71467 23.8187 7.352 23.456C6.98933 23.0933 6.808 22.6667 6.808 22.176V5.408C6.808 5.23733 6.72267 5.152 6.552 5.152H2.456ZM26.5605 10.528C25.6005 10.528 24.8752 10.784 24.3845 11.296C23.8938 11.7867 23.5845 12.64 23.4565 13.856C23.4565 14.0267 23.5312 14.112 23.6805 14.112H29.0885C29.2805 14.112 29.3765 14.016 29.3765 13.824C29.2912 11.6267 28.3525 10.528 26.5605 10.528ZM27.3605 24.32C24.4592 24.32 22.2192 23.584 20.6405 22.112C19.0832 20.64 18.3045 18.496 18.3045 15.68C18.3045 12.8853 18.9978 10.752 20.3845 9.28C21.7925 7.78667 23.8192 7.04 26.4645 7.04C31.5418 7.04 34.1232 9.81333 34.2085 15.36C34.2085 15.872 34.0058 16.3093 33.6005 16.672C33.2165 17.0133 32.7685 17.184 32.2565 17.184H23.7125C23.4992 17.184 23.4138 17.28 23.4565 17.472C23.6272 18.6453 24.0752 19.488 24.8005 20C25.5472 20.4907 26.6565 20.736 28.1285 20.736C29.0885 20.736 30.1232 20.5973 31.2325 20.32C31.6805 20.2133 32.0752 20.2987 32.4165 20.576C32.7792 20.8533 32.9605 21.216 32.9605 21.664V21.728C32.9605 22.2613 32.7898 22.752 32.4485 23.2C32.1285 23.6267 31.7125 23.8827 31.2005 23.968C29.9632 24.2027 28.6832 24.32 27.3605 24.32ZM45.327 16.384C42.7243 16.384 41.423 17.184 41.423 18.784C41.423 19.36 41.5937 19.8187 41.935 20.16C42.2763 20.48 42.735 20.64 43.311 20.64C44.335 20.64 45.167 20.32 45.807 19.68C46.447 19.0187 46.767 18.144 46.767 17.056V16.672C46.767 16.48 46.671 16.384 46.479 16.384H45.327ZM41.743 24.32C40.271 24.32 39.055 23.8507 38.095 22.912C37.1563 21.952 36.687 20.7147 36.687 19.2C36.687 15.3173 39.567 13.376 45.327 13.376H46.479C46.671 13.376 46.767 13.2907 46.767 13.12V12.96C46.767 12.1493 46.5537 11.5627 46.127 11.2C45.7217 10.8373 45.0283 10.656 44.047 10.656C42.7457 10.656 41.1883 10.8587 39.375 11.264C38.927 11.3493 38.5217 11.2533 38.159 10.976C37.8177 10.6987 37.647 10.336 37.647 9.888V9.824C37.647 9.29067 37.807 8.81067 38.127 8.384C38.4683 7.936 38.895 7.66933 39.407 7.584C41.2843 7.22133 42.9057 7.04 44.271 7.04C47.0657 7.04 49.039 7.54133 50.191 8.544C51.3643 9.54667 51.951 11.2107 51.951 13.536V22.176C51.951 22.6667 51.7697 23.0933 51.407 23.456C51.0443 23.8187 50.6177 24 50.127 24H48.943C48.431 24 47.9937 23.8293 47.631 23.488C47.2683 23.1253 47.0763 22.688 47.055 22.176V21.824C47.055 21.8027 47.0443 21.792 47.023 21.792C46.9803 21.792 46.959 21.8027 46.959 21.824C45.615 23.488 43.8763 24.32 41.743 24.32ZM57.8423 24C57.3516 24 56.9249 23.8187 56.5623 23.456C56.1996 23.0933 56.0182 22.6667 56.0182 22.176V9.184C56.0182 8.69333 56.1996 8.26667 56.5623 7.904C56.9249 7.54133 57.3516 7.36 57.8423 7.36H59.0263C59.5383 7.36 59.9649 7.54133 60.3063 7.904C60.6689 8.24533 60.8716 8.672 60.9143 9.184L60.9463 9.472C60.9463 9.49333 60.9569 9.504 60.9783 9.504C61.0209 9.504 61.0423 9.49333 61.0423 9.472C62.3009 7.85067 63.7409 7.04 65.3623 7.04C66.3436 7.04 67.1223 7.22133 67.6983 7.584C68.2743 7.92533 68.8076 8.544 69.2983 9.44C69.2983 9.48267 69.3196 9.504 69.3623 9.504L69.4263 9.44C70.8983 7.84 72.4343 7.04 74.0343 7.04C75.8476 7.04 77.1596 7.53067 77.9703 8.512C78.7809 9.472 79.1863 11.1147 79.1863 13.44V22.176C79.1863 22.6667 79.0049 23.0933 78.6423 23.456C78.2796 23.8187 77.8529 24 77.3623 24H75.9543C75.4636 24 75.0369 23.8187 74.6743 23.456C74.3116 23.0933 74.1303 22.6667 74.1303 22.176V13.76C74.1303 12.608 74.0023 11.8507 73.7463 11.488C73.4903 11.104 73.0103 10.912 72.3063 10.912C71.8156 10.912 71.3356 11.1147 70.8663 11.52C70.4183 11.9253 70.1943 12.32 70.1943 12.704V22.176C70.1943 22.6667 70.0129 23.0933 69.6503 23.456C69.2876 23.8187 68.8609 24 68.3703 24H66.9623C66.4716 24 66.0449 23.8187 65.6823 23.456C65.3196 23.0933 65.1383 22.6667 65.1383 22.176V13.76C65.1383 12.608 65.0103 11.8507 64.7543 11.488C64.5196 11.104 64.0503 10.912 63.3463 10.912C62.8556 10.912 62.3756 11.1147 61.9062 11.52C61.4369 11.9253 61.2023 12.32 61.2023 12.704V22.176C61.2023 22.6667 61.0209 23.0933 60.6583 23.456C60.2956 23.8187 59.8689 24 59.3783 24H57.8423ZM81.706 5.152C81.2153 5.152 80.7887 4.97067 80.426 4.608C80.0633 4.24533 79.882 3.81867 79.882 3.328V2.464C79.882 1.97333 80.0633 1.54667 80.426 1.184C80.7887 0.821332 81.2153 0.639999 81.706 0.639999H95.978C96.4687 0.639999 96.8953 0.821332 97.258 1.184C97.6207 1.54667 97.802 1.97333 97.802 2.464V3.328C97.802 3.81867 97.6207 4.24533 97.258 4.608C96.8953 4.97067 96.4687 5.152 95.978 5.152H91.882C91.7113 5.152 91.626 5.23733 91.626 5.408V22.176C91.626 22.6667 91.4447 23.0933 91.082 23.456C90.7193 23.8187 90.2927 24 89.802 24H87.882C87.3913 24 86.9647 23.8187 86.602 23.456C86.2393 23.0933 86.058 22.6667 86.058 22.176V5.408C86.058 5.23733 85.9727 5.152 85.802 5.152H81.706ZM105.811 10.528C104.851 10.528 104.125 10.784 103.635 11.296C103.144 11.7867 102.835 12.64 102.707 13.856C102.707 14.0267 102.781 14.112 102.931 14.112H108.339C108.531 14.112 108.627 14.016 108.627 13.824C108.541 11.6267 107.603 10.528 105.811 10.528ZM106.611 24.32C103.709 24.32 101.469 23.584 99.8905 22.112C98.3332 20.64 97.5545 18.496 97.5545 15.68C97.5545 12.8853 98.2478 10.752 99.6345 9.28C101.043 7.78667 103.069 7.04 105.715 7.04C110.792 7.04 113.373 9.81333 113.458 15.36C113.458 15.872 113.256 16.3093 112.851 16.672C112.467 17.0133 112.019 17.184 111.507 17.184H102.963C102.749 17.184 102.664 17.28 102.707 17.472C102.877 18.6453 103.325 19.488 104.051 20C104.797 20.4907 105.907 20.736 107.379 20.736C108.339 20.736 109.373 20.5973 110.483 20.32C110.931 20.2133 111.325 20.2987 111.667 20.576C112.029 20.8533 112.211 21.216 112.211 21.664V21.728C112.211 22.2613 112.04 22.752 111.699 23.2C111.379 23.6267 110.963 23.8827 110.451 23.968C109.213 24.2027 107.933 24.32 106.611 24.32ZM119.361 24C118.87 24 118.444 23.8187 118.081 23.456C117.718 23.0933 117.537 22.6667 117.537 22.176V1.824C117.537 1.33333 117.718 0.906666 118.081 0.543999C118.444 0.181332 118.87 -1.90735e-06 119.361 -1.90735e-06H121.153C121.644 -1.90735e-06 122.07 0.181332 122.433 0.543999C122.796 0.906666 122.977 1.33333 122.977 1.824V22.176C122.977 22.6667 122.796 23.0933 122.433 23.456C122.07 23.8187 121.644 24 121.153 24H119.361ZM129.986 24C129.495 24 129.069 23.8187 128.706 23.456C128.343 23.0933 128.162 22.6667 128.162 22.176V1.824C128.162 1.33333 128.343 0.906666 128.706 0.543999C129.069 0.181332 129.495 -1.90735e-06 129.986 -1.90735e-06H131.778C132.269 -1.90735e-06 132.695 0.181332 133.058 0.543999C133.421 0.906666 133.602 1.33333 133.602 1.824V22.176C133.602 22.6667 133.421 23.0933 133.058 23.456C132.695 23.8187 132.269 24 131.778 24H129.986ZM144.564 17.6C142.26 17.1733 140.607 16.512 139.604 15.616C138.623 14.72 138.132 13.536 138.132 12.064C138.132 10.4853 138.719 9.25867 139.892 8.384C141.087 7.488 142.879 7.04 145.268 7.04C146.676 7.04 148.116 7.15733 149.588 7.392C150.1 7.47733 150.516 7.72267 150.836 8.128C151.177 8.53333 151.348 9.00267 151.348 9.536V9.696C151.348 10.144 151.167 10.5067 150.804 10.784C150.463 11.0613 150.068 11.1573 149.62 11.072C148.233 10.7947 146.953 10.656 145.78 10.656C144.905 10.656 144.287 10.7627 143.924 10.976C143.583 11.1893 143.412 11.5093 143.412 11.936C143.412 12.7467 144.052 13.28 145.332 13.536C147.764 13.9413 149.46 14.5813 150.42 15.456C151.401 16.3307 151.892 17.6 151.892 19.264C151.892 20.864 151.295 22.112 150.1 23.008C148.905 23.8827 147.167 24.32 144.884 24.32C143.22 24.32 141.641 24.16 140.148 23.84C139.636 23.7333 139.209 23.4667 138.868 23.04C138.548 22.592 138.388 22.0907 138.388 21.536V21.28C138.388 20.832 138.569 20.4907 138.932 20.256C139.295 20 139.7 19.9253 140.148 20.032C141.535 20.3947 142.9 20.576 144.244 20.576C145.823 20.576 146.612 20.1173 146.612 19.2C146.612 18.7733 146.463 18.4427 146.164 18.208C145.887 17.9733 145.353 17.7707 144.564 17.6Z" fill="#E30611"/>
</svg>
