<svg width="16" height="14" viewBox="0 0 16 14" fill="none" xmlns="http://www.w3.org/2000/svg">
<path d="M0.710938 1.28906C0.549479 1.28906 0.411458 1.23177 0.296875 1.11719C0.182292 1.0026 0.125 0.861979 0.125 0.695312C0.125 0.533854 0.182292 0.395833 0.296875 0.28125C0.411458 0.166667 0.549479 0.109375 0.710938 0.109375H15.2656C15.4323 0.109375 15.5729 0.166667 15.6875 0.28125C15.8073 0.395833 15.8672 0.533854 15.8672 0.695312C15.8672 0.861979 15.8073 1.0026 15.6875 1.11719C15.5729 1.23177 15.4323 1.28906 15.2656 1.28906H0.710938ZM3.60156 5.38281C3.4349 5.38281 3.29427 5.32552 3.17969 5.21094C3.0651 5.09635 3.00781 4.95573 3.00781 4.78906C3.00781 4.6224 3.0651 4.48438 3.17969 4.375C3.29427 4.26042 3.4349 4.20312 3.60156 4.20312H12.3828C12.5495 4.20312 12.6901 4.26042 12.8047 4.375C12.9193 4.48438 12.9766 4.6224 12.9766 4.78906C12.9766 4.95573 12.9193 5.09635 12.8047 5.21094C12.6901 5.32552 12.5495 5.38281 12.3828 5.38281H3.60156ZM0.710938 9.47656C0.549479 9.47656 0.411458 9.41927 0.296875 9.30469C0.182292 9.1901 0.125 9.04948 0.125 8.88281C0.125 8.71615 0.182292 8.57812 0.296875 8.46875C0.411458 8.35417 0.549479 8.29688 0.710938 8.29688H15.2656C15.4323 8.29688 15.5729 8.35417 15.6875 8.46875C15.8073 8.57812 15.8672 8.71615 15.8672 8.88281C15.8672 9.04948 15.8073 9.1901 15.6875 9.30469C15.5729 9.41927 15.4323 9.47656 15.2656 9.47656H0.710938ZM3.60156 13.5625C3.4349 13.5625 3.29427 13.5052 3.17969 13.3906C3.0651 13.2812 3.00781 13.1432 3.00781 12.9766C3.00781 12.8099 3.0651 12.6693 3.17969 12.5547C3.29427 12.4401 3.4349 12.3828 3.60156 12.3828H12.3828C12.5495 12.3828 12.6901 12.4401 12.8047 12.5547C12.9193 12.6693 12.9766 12.8099 12.9766 12.9766C12.9766 13.1432 12.9193 13.2812 12.8047 13.3906C12.6901 13.5052 12.5495 13.5625 12.3828 13.5625H3.60156Z" fill="#5E5E5E"/>
</svg>
