<svg width="24" height="24" viewBox="0 0 24 24" fill="none" xmlns="http://www.w3.org/2000/svg">
<path d="M7.70912 19.3789C7.45392 19.3789 7.27683 19.3008 7.17787 19.1445C7.07892 18.9935 7.05287 18.8112 7.09975 18.5977L8.56069 11.1602C8.60756 10.9154 8.72214 10.7122 8.90444 10.5508C9.09194 10.3893 9.30548 10.3086 9.54506 10.3086H14.4591C14.6935 10.3086 14.9044 10.3893 15.0919 10.5508C15.2794 10.7122 15.3966 10.9154 15.4435 11.1602L16.9044 18.5977C16.9461 18.806 16.9175 18.9883 16.8185 19.1445C16.7247 19.3008 16.5477 19.3789 16.2872 19.3789C16.105 19.3789 15.9643 19.332 15.8654 19.2383C15.7716 19.1497 15.7091 19.0247 15.6779 18.8633L14.131 10.9883L14.9122 11.6211H9.08412L9.86537 10.9883L8.3185 18.8633C8.28725 19.0247 8.22214 19.1497 8.12319 19.2383C8.02944 19.332 7.89142 19.3789 7.70912 19.3789ZM9.37319 10.9414L11.3107 5.13672C11.4253 4.79297 11.6596 4.62109 12.0138 4.62109C12.3419 4.62109 12.5659 4.79297 12.6857 5.13672L14.631 10.9414H9.37319Z" fill="#5E5E5E"/>
</svg>
