<svg width="16" height="14" viewBox="0 0 16 14" fill="none" xmlns="http://www.w3.org/2000/svg">
<path d="M0.710938 1.28906C0.549479 1.28906 0.411458 1.23177 0.296875 1.11719C0.182292 1.0026 0.125 0.861979 0.125 0.695312C0.125 0.533854 0.182292 0.395833 0.296875 0.28125C0.411458 0.166667 0.549479 0.109375 0.710938 0.109375H15.2656C15.4323 0.109375 15.5729 0.166667 15.6875 0.28125C15.8073 0.395833 15.8672 0.533854 15.8672 0.695312C15.8672 0.861979 15.8073 1.0026 15.6875 1.11719C15.5729 1.23177 15.4323 1.28906 15.2656 1.28906H0.710938ZM0.710938 9.47656C0.549479 9.47656 0.411458 9.41927 0.296875 9.30469C0.182292 9.1901 0.125 9.04948 0.125 8.88281C0.125 8.71615 0.182292 8.57812 0.296875 8.46875C0.411458 8.35417 0.549479 8.29688 0.710938 8.29688H15.2656C15.4323 8.29688 15.5729 8.35417 15.6875 8.46875C15.8073 8.57812 15.8672 8.71615 15.8672 8.88281C15.8672 9.04948 15.8073 9.1901 15.6875 9.30469C15.5729 9.41927 15.4323 9.47656 15.2656 9.47656H0.710938ZM6.48438 5.38281C6.31771 5.38281 6.17708 5.32552 6.0625 5.21094C5.94792 5.09635 5.89062 4.95573 5.89062 4.78906C5.89062 4.6224 5.94792 4.48438 6.0625 4.375C6.17708 4.26042 6.31771 4.20312 6.48438 4.20312H15.2656C15.4323 4.20312 15.5729 4.26042 15.6875 4.375C15.8073 4.48438 15.8672 4.6224 15.8672 4.78906C15.8672 4.95573 15.8073 5.09635 15.6875 5.21094C15.5729 5.32552 15.4323 5.38281 15.2656 5.38281H6.48438ZM6.48438 13.5625C6.31771 13.5625 6.17708 13.5052 6.0625 13.3906C5.94792 13.2812 5.89062 13.1432 5.89062 12.9766C5.89062 12.8099 5.94792 12.6693 6.0625 12.5547C6.17708 12.4401 6.31771 12.3828 6.48438 12.3828H15.2656C15.4323 12.3828 15.5729 12.4401 15.6875 12.5547C15.8073 12.6693 15.8672 12.8099 15.8672 12.9766C15.8672 13.1432 15.8073 13.2812 15.6875 13.3906C15.5729 13.5052 15.4323 13.5625 15.2656 13.5625H6.48438Z" fill="#5E5E5E"/>
</svg>
