<svg width="16" height="14" viewBox="0 0 16 14" fill="none" xmlns="http://www.w3.org/2000/svg">
<path d="M0.710938 1.28906C0.549479 1.28906 0.411458 1.23177 0.296875 1.11719C0.182292 1.0026 0.125 0.861979 0.125 0.695312C0.125 0.533854 0.182292 0.395833 0.296875 0.28125C0.411458 0.166667 0.549479 0.109375 0.710938 0.109375H15.2656C15.4323 0.109375 15.5729 0.166667 15.6875 0.28125C15.8073 0.395833 15.8672 0.533854 15.8672 0.695312C15.8672 0.861979 15.8073 1.0026 15.6875 1.11719C15.5729 1.23177 15.4323 1.28906 15.2656 1.28906H0.710938ZM0.710938 5.38281C0.549479 5.38281 0.411458 5.32552 0.296875 5.21094C0.182292 5.09635 0.125 4.95573 0.125 4.78906C0.125 4.6224 0.182292 4.48438 0.296875 4.375C0.411458 4.26042 0.549479 4.20312 0.710938 4.20312H9.5C9.66667 4.20312 9.80729 4.26042 9.92188 4.375C10.0365 4.48438 10.0938 4.6224 10.0938 4.78906C10.0938 4.95573 10.0365 5.09635 9.92188 5.21094C9.80729 5.32552 9.66667 5.38281 9.5 5.38281H0.710938ZM0.710938 9.47656C0.549479 9.47656 0.411458 9.41927 0.296875 9.30469C0.182292 9.1901 0.125 9.04948 0.125 8.88281C0.125 8.71615 0.182292 8.57812 0.296875 8.46875C0.411458 8.35417 0.549479 8.29688 0.710938 8.29688H15.2656C15.4323 8.29688 15.5729 8.35417 15.6875 8.46875C15.8073 8.57812 15.8672 8.71615 15.8672 8.88281C15.8672 9.04948 15.8073 9.1901 15.6875 9.30469C15.5729 9.41927 15.4323 9.47656 15.2656 9.47656H0.710938ZM0.710938 13.5625C0.549479 13.5625 0.411458 13.5052 0.296875 13.3906C0.182292 13.2812 0.125 13.1432 0.125 12.9766C0.125 12.8099 0.182292 12.6693 0.296875 12.5547C0.411458 12.4401 0.549479 12.3828 0.710938 12.3828H9.5C9.66667 12.3828 9.80729 12.4401 9.92188 12.5547C10.0365 12.6693 10.0938 12.8099 10.0938 12.9766C10.0938 13.1432 10.0365 13.2812 9.92188 13.3906C9.80729 13.5052 9.66667 13.5625 9.5 13.5625H0.710938Z" fill="#5E5E5E"/>
</svg>
