<svg width="20" height="22" viewBox="0 0 20 22" fill="none" xmlns="http://www.w3.org/2000/svg">
<path d="M5.71289 4.67383V2.48633C5.71289 1.7832 5.92773 1.22982 6.35742 0.826172C6.79362 0.416016 7.38607 0.210938 8.13477 0.210938H11.8457C12.5944 0.210938 13.1836 0.416016 13.6133 0.826172C14.0495 1.22982 14.2676 1.7832 14.2676 2.48633V4.67383H12.7148V2.58398C12.7148 2.31055 12.6237 2.08919 12.4414 1.91992C12.2656 1.75065 12.0312 1.66602 11.7383 1.66602H8.24219C7.94922 1.66602 7.71159 1.75065 7.5293 1.91992C7.35352 2.08919 7.26562 2.31055 7.26562 2.58398V4.67383H5.71289ZM1.2793 5.45508C1.08398 5.45508 0.911458 5.38346 0.761719 5.24023C0.61849 5.09049 0.546875 4.91471 0.546875 4.71289C0.546875 4.51758 0.61849 4.34831 0.761719 4.20508C0.911458 4.05534 1.08398 3.98047 1.2793 3.98047H18.7305C18.9258 3.98047 19.0951 4.05208 19.2383 4.19531C19.3815 4.33854 19.4531 4.51107 19.4531 4.71289C19.4531 4.91471 19.3815 5.09049 19.2383 5.24023C19.1016 5.38346 18.9323 5.45508 18.7305 5.45508H1.2793ZM5.52734 21.959C4.82422 21.959 4.25456 21.7507 3.81836 21.334C3.38867 20.9238 3.15755 20.3672 3.125 19.6641L2.43164 5.26953H3.96484L4.6582 19.4883C4.67122 19.7747 4.77214 20.0124 4.96094 20.2012C5.14974 20.39 5.38411 20.4844 5.66406 20.4844H14.3262C14.6126 20.4844 14.8503 20.39 15.0391 20.2012C15.2279 20.0189 15.3288 19.7812 15.3418 19.4883L15.9961 5.26953H17.5684L16.8848 19.6543C16.8522 20.3574 16.6178 20.9173 16.1816 21.334C15.7454 21.7507 15.179 21.959 14.4824 21.959H5.52734ZM7.10938 18.8145C6.92708 18.8145 6.7806 18.7624 6.66992 18.6582C6.55924 18.554 6.50065 18.4141 6.49414 18.2383L6.20117 7.79883C6.19466 7.62956 6.24674 7.49284 6.35742 7.38867C6.47461 7.27799 6.62435 7.22266 6.80664 7.22266C6.98242 7.22266 7.12565 7.27474 7.23633 7.37891C7.35352 7.48307 7.41211 7.61979 7.41211 7.78906L7.71484 18.2383C7.71484 18.4076 7.65951 18.5475 7.54883 18.6582C7.43815 18.7624 7.29167 18.8145 7.10938 18.8145ZM10 18.8145C9.81771 18.8145 9.66797 18.7624 9.55078 18.6582C9.43359 18.5475 9.375 18.4076 9.375 18.2383V7.79883C9.375 7.62956 9.43359 7.49284 9.55078 7.38867C9.66797 7.27799 9.81771 7.22266 10 7.22266C10.1888 7.22266 10.3418 7.27799 10.459 7.38867C10.5762 7.49284 10.6348 7.62956 10.6348 7.79883V18.2383C10.6348 18.4076 10.5762 18.5475 10.459 18.6582C10.3418 18.7624 10.1888 18.8145 10 18.8145ZM12.9004 18.8145C12.7116 18.8145 12.5618 18.7624 12.4512 18.6582C12.3405 18.5475 12.2884 18.4076 12.2949 18.2383L12.5879 7.79883C12.5944 7.62305 12.653 7.48307 12.7637 7.37891C12.8743 7.27474 13.0176 7.22266 13.1934 7.22266C13.3822 7.22266 13.5319 7.27799 13.6426 7.38867C13.7533 7.49284 13.8053 7.62956 13.7988 7.79883L13.5059 18.2383C13.4993 18.4141 13.4408 18.554 13.3301 18.6582C13.2194 18.7624 13.0762 18.8145 12.9004 18.8145Z" fill="#5F6367"/>
</svg>
