<svg width="32" height="32" viewBox="0 0 32 32" fill="none" xmlns="http://www.w3.org/2000/svg">
<rect width="32" height="32" rx="16" fill="#F2F3F7"/>
<path d="M12.5703 10.0391V8.28906C12.5703 7.72656 12.7422 7.28385 13.0859 6.96094C13.4349 6.63281 13.9089 6.46875 14.5078 6.46875H17.4766C18.0755 6.46875 18.5469 6.63281 18.8906 6.96094C19.2396 7.28385 19.4141 7.72656 19.4141 8.28906V10.0391H18.1719V8.36719C18.1719 8.14844 18.099 7.97135 17.9531 7.83594C17.8125 7.70052 17.625 7.63281 17.3906 7.63281H14.5938C14.3594 7.63281 14.1693 7.70052 14.0234 7.83594C13.8828 7.97135 13.8125 8.14844 13.8125 8.36719V10.0391H12.5703ZM9.02344 10.6641C8.86719 10.6641 8.72917 10.6068 8.60938 10.4922C8.49479 10.3724 8.4375 10.2318 8.4375 10.0703C8.4375 9.91406 8.49479 9.77865 8.60938 9.66406C8.72917 9.54427 8.86719 9.48438 9.02344 9.48438H22.9844C23.1406 9.48438 23.276 9.54167 23.3906 9.65625C23.5052 9.77083 23.5625 9.90885 23.5625 10.0703C23.5625 10.2318 23.5052 10.3724 23.3906 10.4922C23.2812 10.6068 23.1458 10.6641 22.9844 10.6641H9.02344ZM12.4219 23.8672C11.8594 23.8672 11.4036 23.7005 11.0547 23.3672C10.7109 23.0391 10.526 22.5938 10.5 22.0312L9.94531 10.5156H11.1719L11.7266 21.8906C11.737 22.1198 11.8177 22.3099 11.9688 22.4609C12.1198 22.612 12.3073 22.6875 12.5312 22.6875H19.4609C19.6901 22.6875 19.8802 22.612 20.0312 22.4609C20.1823 22.3151 20.263 22.125 20.2734 21.8906L20.7969 10.5156H22.0547L21.5078 22.0234C21.4818 22.5859 21.2943 23.0339 20.9453 23.3672C20.5964 23.7005 20.1432 23.8672 19.5859 23.8672H12.4219ZM13.6875 21.3516C13.5417 21.3516 13.4245 21.3099 13.3359 21.2266C13.2474 21.1432 13.2005 21.0312 13.1953 20.8906L12.9609 12.5391C12.9557 12.4036 12.9974 12.2943 13.0859 12.2109C13.1797 12.1224 13.2995 12.0781 13.4453 12.0781C13.5859 12.0781 13.7005 12.1198 13.7891 12.2031C13.8828 12.2865 13.9297 12.3958 13.9297 12.5312L14.1719 20.8906C14.1719 21.026 14.1276 21.138 14.0391 21.2266C13.9505 21.3099 13.8333 21.3516 13.6875 21.3516ZM16 21.3516C15.8542 21.3516 15.7344 21.3099 15.6406 21.2266C15.5469 21.138 15.5 21.026 15.5 20.8906V12.5391C15.5 12.4036 15.5469 12.2943 15.6406 12.2109C15.7344 12.1224 15.8542 12.0781 16 12.0781C16.151 12.0781 16.2734 12.1224 16.3672 12.2109C16.4609 12.2943 16.5078 12.4036 16.5078 12.5391V20.8906C16.5078 21.026 16.4609 21.138 16.3672 21.2266C16.2734 21.3099 16.151 21.3516 16 21.3516ZM18.3203 21.3516C18.1693 21.3516 18.0495 21.3099 17.9609 21.2266C17.8724 21.138 17.8307 21.026 17.8359 20.8906L18.0703 12.5391C18.0755 12.3984 18.1224 12.2865 18.2109 12.2031C18.2995 12.1198 18.4141 12.0781 18.5547 12.0781C18.7057 12.0781 18.8255 12.1224 18.9141 12.2109C19.0026 12.2943 19.0443 12.4036 19.0391 12.5391L18.8047 20.8906C18.7995 21.0312 18.7526 21.1432 18.6641 21.2266C18.5755 21.3099 18.4609 21.3516 18.3203 21.3516Z" fill="#E30611"/>
</svg>
