<svg width="20" height="21" viewBox="0 0 20 21" fill="none" xmlns="http://www.w3.org/2000/svg">
<g clip-path="url(#clip0_32_2044)">
<path d="M2.74414 12.4121C2.38607 12.4121 2.05729 12.3242 1.75781 12.1484C1.46484 11.9727 1.23047 11.7383 1.05469 11.4453C0.878906 11.1523 0.791016 10.8236 0.791016 10.459C0.791016 10.1009 0.878906 9.77539 1.05469 9.48242C1.23047 9.18294 1.46484 8.94531 1.75781 8.76953C2.05729 8.59375 2.38607 8.50586 2.74414 8.50586C3.29753 8.50586 3.76628 8.69792 4.15039 9.08203C4.53451 9.45964 4.72656 9.91862 4.72656 10.459C4.72656 10.8236 4.63542 11.1523 4.45312 11.4453C4.27734 11.7383 4.03971 11.9727 3.74023 12.1484C3.44727 12.3242 3.11523 12.4121 2.74414 12.4121ZM10 12.4121C9.64193 12.4121 9.31315 12.3242 9.01367 12.1484C8.7207 11.9727 8.48633 11.7383 8.31055 11.4453C8.14128 11.1523 8.05664 10.8236 8.05664 10.459C8.05664 10.1009 8.14128 9.77539 8.31055 9.48242C8.48633 9.18294 8.7207 8.94531 9.01367 8.76953C9.31315 8.59375 9.64193 8.50586 10 8.50586C10.5404 8.50586 10.9993 8.69792 11.377 9.08203C11.7611 9.45964 11.9531 9.91862 11.9531 10.459C11.9531 10.8236 11.8652 11.1523 11.6895 11.4453C11.5137 11.7383 11.2793 11.9727 10.9863 12.1484C10.6934 12.3242 10.3646 12.4121 10 12.4121ZM17.2559 12.4121C16.8913 12.4121 16.5592 12.3242 16.2598 12.1484C15.9603 11.9727 15.7227 11.7383 15.5469 11.4453C15.3711 11.1523 15.2832 10.8236 15.2832 10.459C15.2832 10.1009 15.3711 9.77539 15.5469 9.48242C15.7227 9.18294 15.9603 8.94531 16.2598 8.76953C16.5592 8.59375 16.8913 8.50586 17.2559 8.50586C17.7962 8.50586 18.2552 8.69792 18.6328 9.08203C19.0169 9.45964 19.209 9.91862 19.209 10.459C19.209 10.8236 19.1211 11.1523 18.9453 11.4453C18.7695 11.7383 18.5319 11.9727 18.2324 12.1484C17.9395 12.3242 17.6139 12.4121 17.2559 12.4121Z" fill="#BCC1C6"/>
</g>
<defs>
<clipPath id="clip0_32_2044">
<rect width="20" height="20" fill="white" transform="translate(0 0.5)"/>
</clipPath>
</defs>
</svg>
