<svg width="24" height="24" viewBox="0 0 24 24" fill="none" xmlns="http://www.w3.org/2000/svg">
<path d="M11.9961 16.5898C11.0586 16.5898 10.2487 16.4154 9.56641 16.0664C8.88932 15.7174 8.36589 15.2331 7.99609 14.6133C7.63151 13.9883 7.44922 13.2669 7.44922 12.4492V5.73828C7.44922 5.51953 7.51172 5.34505 7.63672 5.21484C7.76693 5.07943 7.94141 5.01172 8.16016 5.01172C8.38411 5.01172 8.5612 5.07943 8.69141 5.21484C8.82682 5.34505 8.89453 5.51953 8.89453 5.73828V12.332C8.89453 12.9154 9.01693 13.4258 9.26172 13.8633C9.50651 14.3008 9.86068 14.6445 10.3242 14.8945C10.7878 15.1393 11.3451 15.2617 11.9961 15.2617C12.9753 15.2617 13.7383 14.9909 14.2852 14.4492C14.832 13.9076 15.1055 13.2018 15.1055 12.332V5.73828C15.1055 5.51953 15.168 5.34505 15.293 5.21484C15.4232 5.07943 15.5977 5.01172 15.8164 5.01172C16.0404 5.01172 16.2174 5.07943 16.3477 5.21484C16.4831 5.34505 16.5508 5.51953 16.5508 5.73828V12.4492C16.5508 13.2669 16.3659 13.9883 15.9961 14.6133C15.6315 15.2331 15.1081 15.7174 14.4258 16.0664C13.7435 16.4154 12.9336 16.5898 11.9961 16.5898ZM7.91016 18.9883C7.78516 18.9883 7.67578 18.944 7.58203 18.8555C7.49349 18.7669 7.44922 18.6576 7.44922 18.5273C7.44922 18.3919 7.49349 18.2799 7.58203 18.1914C7.67578 18.1029 7.78516 18.0586 7.91016 18.0586H16.082C16.2122 18.0586 16.3216 18.1029 16.4102 18.1914C16.5039 18.2799 16.5508 18.3919 16.5508 18.5273C16.5508 18.6576 16.5039 18.7669 16.4102 18.8555C16.3216 18.944 16.2122 18.9883 16.082 18.9883H7.91016Z" fill="#5E5E5E"/>
</svg>
