<svg width="20" height="19" viewBox="0 0 20 19" fill="none" xmlns="http://www.w3.org/2000/svg">
<path d="M1.01172 18.5391C0.871094 18.4062 0.777344 18.25 0.730469 18.0703C0.691406 17.8906 0.695312 17.7109 0.742188 17.5312C0.789062 17.3516 0.878906 17.1953 1.01172 17.0625L8.51172 9.55078L1.01172 2.05078C0.878906 1.91797 0.789062 1.76172 0.742188 1.58203C0.703125 1.40234 0.703125 1.22266 0.742188 1.04297C0.789062 0.863281 0.878906 0.707031 1.01172 0.574219C1.14453 0.433594 1.30078 0.34375 1.48047 0.304688C1.66016 0.257812 1.83984 0.257812 2.01953 0.304688C2.20703 0.34375 2.36719 0.433594 2.5 0.574219L10 8.07422L17.5 0.574219C17.6328 0.433594 17.7891 0.34375 17.9688 0.304688C18.1484 0.257812 18.3281 0.257812 18.5078 0.304688C18.6875 0.34375 18.8477 0.433594 18.9883 0.574219C19.1211 0.707031 19.2109 0.863281 19.2578 1.04297C19.3047 1.22266 19.3047 1.40234 19.2578 1.58203C19.2109 1.76172 19.1211 1.91797 18.9883 2.05078L11.4883 9.55078L18.9883 17.0625C19.1211 17.1953 19.207 17.3516 19.2461 17.5312C19.293 17.7109 19.293 17.8906 19.2461 18.0703C19.207 18.25 19.1211 18.4062 18.9883 18.5391C18.8555 18.6797 18.6953 18.7695 18.5078 18.8086C18.3281 18.8555 18.1484 18.8555 17.9688 18.8086C17.7891 18.7617 17.6328 18.6719 17.5 18.5391L10 11.0391L2.5 18.5391C2.36719 18.6719 2.21094 18.7617 2.03125 18.8086C1.85156 18.8555 1.67188 18.8555 1.49219 18.8086C1.3125 18.7617 1.15234 18.6719 1.01172 18.5391Z" fill="#BCC1C6"/>
</svg>
